<svg xmlns="http://www.w3.org/2000/svg" xmlns:xlink="http://www.w3.org/1999/xlink" viewBox="0 0 500 386.11"><defs><style>.cls-1{fill:url(#linear-gradient);}.cls-11,.cls-2{mix-blend-mode:darken;}.cls-2{fill:url(#linear-gradient-2);}.cls-3{fill:url(#linear-gradient-3);}.cls-4{fill:url(#linear-gradient-4);}.cls-5{fill:url(#linear-gradient-5);}.cls-6{isolation:isolate;}.cls-11,.cls-13,.cls-15,.cls-17,.cls-7,.cls-9{fill:#391b00;}.cls-8{fill:#fff;}.cls-9{fill-rule:evenodd;}.cls-10{mask:url(#mask);}.cls-12{mask:url(#mask-2);}.cls-13{opacity:0.7;}.cls-14{mask:url(#mask-3);}.cls-15{opacity:0.76;}.cls-16{mask:url(#mask-4);}.cls-17{opacity:0.8;}.cls-18{mask:url(#mask-5);}</style><linearGradient id="linear-gradient" x1="64.4" y1="287.63" x2="61.59" y2="283.03" gradientUnits="userSpaceOnUse"><stop offset="0" stop-color="#fff"/><stop offset="1"/></linearGradient><linearGradient id="linear-gradient-2" x1="79.58" y1="278.3" x2="78.3" y2="274.77" xlink:href="#linear-gradient"/><linearGradient id="linear-gradient-3" x1="80.67" y1="276.69" x2="52.26" y2="276.69" xlink:href="#linear-gradient"/><linearGradient id="linear-gradient-4" x1="71.94" y1="277.85" x2="74.96" y2="274.12" xlink:href="#linear-gradient"/><linearGradient id="linear-gradient-5" x1="69.96" y1="276.42" x2="76.97" y2="276.42" xlink:href="#linear-gradient"/><mask id="mask" x="49.24" y="276.17" width="23.26" height="11.37" maskUnits="userSpaceOnUse"><path class="cls-1" d="M50.28,276.17l7,2.45s-7,7.83-8,8.92h7.66c5.76,0,6.59-.81,10.45-5.44l1.37-1.54,3.78-4.39Z"/></mask><mask id="mask-2" x="72.53" y="272.41" width="11.26" height="3.9" maskUnits="userSpaceOnUse"><path class="cls-2" d="M76,272.41l-3.51,3.9h7.74l3.52-3.9Z"/></mask><mask id="mask-3" x="50.41" y="276.57" width="22.23" height="0.25" maskUnits="userSpaceOnUse"><polygon class="cls-3" points="51.09 276.82 72.41 276.82 72.64 276.58 50.41 276.57 51.09 276.82"/></mask><mask id="mask-4" x="72.69" y="272.65" width="3.77" height="3.89" maskUnits="userSpaceOnUse"><polygon class="cls-4" points="72.69 276.55 72.97 276.55 76.46 272.65 76.18 272.65 72.69 276.55"/></mask><mask id="mask-5" x="72.95" y="276.29" width="6.23" height="0.24" maskUnits="userSpaceOnUse"><polygon class="cls-5" points="78.94 276.54 72.95 276.54 73.16 276.3 79.15 276.3 78.94 276.54"/></mask></defs><title>Artboard 4</title><g class="cls-6"><g id="OBJECTS"><path class="cls-7" d="M473.29,15.18H303.42V53H323V29.31H473.29C483.11,28.27,481,14.91,473.29,15.18ZM452.07,24H323V20.48s128.79-.06,129.06,0A1.82,1.82,0,0,1,452.07,24Z"/><path id="path3512" class="cls-7" d="M329.72,53h11.22V32.47H329.72Z"/><path class="cls-7" d="M373.62,46.16c5.66-2.73,5.19-14-3.44-13.68H347.6V53h11.29V46.68h2.77L365.12,53h13.49Zm-10.29-4.68h-4.44V37.67h4.37C367.32,37.67,367.39,41.48,363.33,41.48Z"/><path id="path3516" class="cls-7" d="M383.51,32.47V53H408V47.78H395V45.05h11.7V40H395.08V37.67h12.09v-5.2H383.51"/><path id="path3518" class="cls-7" d="M414,32.47V53h22.12V47.72H425.58V32.47H414"/><path id="path3520" class="cls-7" d="M439,32.47V53h22.11V47.72H450.59V32.47H439"/><path id="path3522" class="cls-7" d="M464.48,53H475.7V32.47H464.48Z"/><path class="cls-7" d="M26.31,87.55h0s0-9.82,9.68-9.43,9.94,3.44,18.47-.13c.65,1.54,0,6.76-5.09,8.16a21.08,21.08,0,0,1-7.77.64,5.26,5.26,0,0,0,0,5c2-1.39,5.23-2.67,8.16-.12L47,97c-1.53-.63-3.63-.88-4.64-.12.25,2.42.63,5.48-.89,7.52s-3.83,4.85-9.06,3.83c1.28-2.93,1.88-3.09.38-10.19C31.07,89.72,35,86.27,35,86.27c-2.42-1.15-8.66,1.27-8.66,1.27"/><path class="cls-7" d="M54.09,86.39l8-2.93c2.3-.13,3.2,4.21,3.07,7.14-.25,5.22-.08,8.8,2.36,9.56L59.32,103c-1.66-.89-3.44-1.4-3.32-5.34s-.13-7.27-.13-8.29-1.79-2.93-1.79-2.93"/><path class="cls-7" d="M82,91s1.91,3,2.42,3.75l6.94-3.69-4.59-7.33-6.64,2.65c-.47-1.67-1.33-3-2.6-2.91L69.9,86.39s1.78,1.92,1.78,2.94.26,4.33.13,8.28,1.65,4.46,3.32,5.35l7.83-2.8c-2.27-.73-2.57-3.92-2.4-8.64Z"/><path class="cls-7" d="M105.07,96.71l10.45-5.09-6.5-7.9h-.22c-1.21,0-7.3.35-10.75,2.41-3.81,2.3-5.22,5-4.84,8.67s4.58,8.41,10.33,8.41c3.3,0,5.35.26,8-1.14L115,96.59c-4.33,1.4-7.78,2.3-9.94.12m3.82-13h0Zm.08,0h0Zm-6.89,9.94c-.89-1.92-.71-3.95,1.21-4.72l2.3,2.8Z"/><path class="cls-7" d="M230.29,96.91l10.45-5.1-6.5-7.9H234c-1.2,0-7.3.35-10.74,2.42-3.83,2.29-5.23,5-4.85,8.67s4.59,8.41,10.33,8.41c3.31,0,5.36.26,8-1.15l3.44-5.47c-4.34,1.4-7.77,2.29-9.94.13m3.83-13h0m.08,0h0Zm-6.9,9.94c-.89-1.91-.7-3.95,1.21-4.72l2.3,2.81Z"/><path class="cls-7" d="M139.93,89.07l-2.36,2.29s-3.89-2.1-4.78-2.74c-1.4-1-2.61-.06-1.6.84s5.77,3.69,7.65,5c1.66,1.13,2.8,2.93.26,4.71a108.14,108.14,0,0,1-9.68,5.24l-9.94-6L121.89,96S127.37,99,128,99.52s2.68-.39.77-1.52-7.28-4.21-8.29-5.1-2.16-2.67,1.28-4.59,8.29-4.71,8.29-4.71Z"/><path class="cls-7" d="M154.33,89.46H159V84.61h-4.66V79.89l-13.12,9.57h4.13v8.41a5.64,5.64,0,0,0,3.19,5.35l8.34-3c-2.8-2.16-2.55-2.87-2.55-3.51V89.46Z"/><path class="cls-7" d="M182.82,88c-3.07-2.92-9.43-4.45-9.43-4.45s-8.43,2.11-10.84,6c-2.29,3.7-.25,7.39,1.91,9.81s5.86,3.31,9.94,4.2a24.19,24.19,0,0,0,7.27-3.18c3.33-2.08,3.57-4.08,3.57-6.63s.38-3.06-2.42-5.74m-7.52,9.82c-6.63-2.81-3.25-9.3-3.25-9.3s6.56,3.45,3.25,9.3"/><path class="cls-7" d="M197,84l-8,3,2.22,2.74v10.45c0,.77.45,2.3,2.62,3.32l7.9-2.54c-1.79-1.66-2-2.56-2-3.57V91l2.81-.89c1.14.89,1.64,1.53,1.64,2.8v6.5a3.48,3.48,0,0,0,1,2.67c1,1,1.79,1.67,1.79,1.67l7.9-3.07A3.78,3.78,0,0,1,212.51,97c0-2.42.26-6.76,0-7.9s-1.4-5.61-6.5-4.46A37.77,37.77,0,0,0,199.26,87,13.27,13.27,0,0,0,197,84"/><g id="layer1"><g id="g19563"><path id="path19014" class="cls-7" d="M299.14,111.95V76H475.6v35.93H299.14Z"/><path id="path19016" class="cls-8" d="M436,104.91H299.14v2.25H435.31l.65-2.25"/><path id="path19018" class="cls-8" d="M326.55,84.37,320.87,93s.36-4.51.45-5.59c.07-.83,0-3-2-3h-9l-5.91,16h7l4.28-11.6-.9,11.6H321L328.72,89l-4.19,11.4h7.09l5.9-16h-11"/><path id="path19020" class="cls-8" d="M364.9,100.12a41,41,0,0,1-5.86.65c-5,.14-9.44-1.88-9.48-5.52-.07-6.31,6.31-9.77,11-10.73a24.43,24.43,0,0,1,10.22.09l-2.35,5.64c-.67-1.53-2.41-1.56-3.12-1.58a9.52,9.52,0,0,0-4.19.9c-2.38,1.09-4.45,4.58-1.09,5.93,1.87.75,4.24.15,6.72-.24l-1.87,4.86"/><path id="path19022" class="cls-8" d="M437.16,100.41h-7.77l5.9-16h7.77l-5.9,16"/><path id="path19024" class="cls-8" d="M343.86,100.41h-7.77l5.91-16h7.76l-5.9,16"/><path id="path19026" class="cls-8" d="M385.78,84.37l-2.14,5.78h-3.91l2.13-5.78h-7.41l-5.89,16h7.38L378,95h3.91l-2,5.44h7.4l5.92-16h-7.39"/><path id="path19028" class="cls-8" d="M421.38,95.08l3.94-10.71h-7.55l-5.91,16H427l2-5.33h-7.61"/><path id="path19030" class="cls-8" d="M462.22,84.37l-4.05,11c.06-1.11.28-5.49.41-8a3.07,3.07,0,0,0-.67-2.36,2.13,2.13,0,0,0-1.41-.64h-9l-5.9,16h6.55l4.18-11.36-.49,11.36h11l5.9-16h-6.5"/><path id="path19032" class="cls-8" d="M400.58,96.08l.66-1.78h8.44l1.45-3.95h-8.44l.65-1.78h8.86l1.56-4.2h-16.2l-5.9,16H408l1.59-4.33h-9"/></g></g><path id="path7626" class="cls-7" d="M116.27,35.71l-2.12,7.78a17.14,17.14,0,0,1-1.87.11c-4.15,0-3.69-1.25-1.94-8,1.82-7,2.88-8.33,5.48-8.33s2.52,1.68,1.88,3.81H124c1-4,.34-7.49-7.06-7.49-8.25,0-10.49,1.74-13.14,12-2.47,9.57-1.66,12.11,7.25,12.11a39.46,39.46,0,0,0,8.57-.78l3-11.19h-6.36Zm15.11,7.67c-.83,0-1.12-.25-1-.92l1.44-5.63h8.47l1-3.69H132.8l1-3.75a2.25,2.25,0,0,1,2.31-1.81h6.79l1-3.7H134c-4.09,0-5.32.73-6.91,6.88L124.13,42c-.9,3.78.22,5.42,3.31,5.42h8.51a3.29,3.29,0,0,0,3.27-2.26l.7-1.8h-8.54Zm96.92,0c-.83,0-1.12-.25-1-.92l1.44-5.63h8.47l1-3.69h-8.47l1-3.75A2.25,2.25,0,0,1,233,27.58h6.78l1-3.7h-9.86c-4.09,0-5.32.73-6.91,6.88L221,42c-.9,3.78.22,5.42,3.31,5.42h8.51a3.29,3.29,0,0,0,3.27-2.26l.7-1.8h-8.54Zm-139.55,0H87l4.1-15.83c.53,0,.72,0,2,0,3.68,0,3.67,1.22,1.92,8s-2.8,7.86-6.3,7.86m5.44-19.53H85.69L79.79,46.73a.52.52,0,0,0,.51.71h7.55c9.49,0,11.09-1.81,13.69-11.88,2.26-8.74.87-11.68-7.36-11.68m118.65,0c-4.89,0-7.16.11-8.49,0l-5.91,22.85a.52.52,0,0,0,.51.71h5.67l5.13-19.86c.52,0,1.32,0,2.12,0,2.75,0,3.12,1,2.39,3.79l-4,15.41a.52.52,0,0,0,.51.71h5.67l4.17-16.12c1.44-5.58-1-7.49-7.78-7.49m-49.09,0-1,3.83h6.3c.06,0,.06.08,0,.12a5.31,5.31,0,0,0-1.91,3L163,46.73a.53.53,0,0,0,.51.71h6.08l5.11-19.73h3.12a3.27,3.27,0,0,0,3.41-2.26l.6-1.57H163.74ZM75.5,47.44l5.91-22.85a.52.52,0,0,0-.51-.71h-6L69,46.73a.52.52,0,0,0,.51.71Zm110.85-3.63c-2.72,0-3.12-1-1.23-8.33,1.58-6.11,3.09-8.24,5.51-8.24,2.72,0,3,1.46,1.26,8.24s-3.45,8.33-5.55,8.33m5.24-20.25c-7.13,0-10.23,1.27-13,12.1-2.42,9.39-.48,12.1,6.77,12.1s10.3-1.52,13-12.1c2-7.66,1.58-12.1-6.77-12.1"/><path id="path7628" class="cls-7" d="M21.83,35.83l3.69-12.94a3.67,3.67,0,0,1,3.32-2.54H40.12a.19.19,0,0,1,.1.35A126.28,126.28,0,0,0,22.15,36a.19.19,0,0,1-.32-.17"/><path id="path7630" class="cls-7" d="M30.75,43.6,34.4,30.83a.19.19,0,0,0-.31-.2A136.23,136.23,0,0,0,18.18,47.11a.19.19,0,0,0,.13.33H34.11c6.67,0,10.31-2.06,11.64-7,1.08-4-1-6.76-4.39-7.47-.06,0-.11-.13,0-.14,2.84-.49,5.71-1.63,6.74-5.78,1.11-4.49-2.33-7-6.27-6.7l-6,21.15a3,3,0,0,1-2.71,2.1ZM65.09,38a4.68,4.68,0,0,0-.77-1.63c0-.05-.05-.13,0-.15a7.22,7.22,0,0,0,5.23-5.44c1-3.83-1.43-6.88-7.53-6.88H53L47.07,46.73a.52.52,0,0,0,.51.71h5.67l5.13-19.86c.55,0,1.07,0,2.38,0,2.18,0,3,1.35,2.52,3.17a4.72,4.72,0,0,1-4.69,3.74h-.83l2.36,11.4a1.83,1.83,0,0,0,2.12,1.57h5.06Zm77.13,1.47c-2.4,5.74.73,8.34,7.1,8.34,5.82,0,9-1.38,10.43-6.73a5.49,5.49,0,0,0-1-5c-2.18-2.36-6.36-2.81-7.83-4.18a2.44,2.44,0,0,1-.52-2.51A2.93,2.93,0,0,1,153.55,27c2.63,0,2.7,1.62,2.05,3.54h5.64c1.33-4-.41-7.15-7.06-7.15-5.59,0-8.61,2.2-9.69,6.4A6.31,6.31,0,0,0,145,34c1.53,2.63,5.6,3,7.85,4.52a2.15,2.15,0,0,1,.75,2.61c-.51,2-1.49,2.9-3.45,2.9s-3-1.1-1.94-4.53h-6Z"/><path class="cls-7" d="M33.25,134H31.74s-1.5.1-2.72,2.72L18.12,160.17h1.51l10.86-23.33c1.3-2.79,2.75-2.79,2.75-2.79"/><path class="cls-7" d="M36.11,134H34.61s-1.5.1-2.72,2.72L21,160.17H22.5l10.86-23.33c1.3-2.79,2.75-2.79,2.75-2.79"/><path class="cls-7" d="M39,134H37.48s-1.5.1-2.72,2.72l-10.9,23.41h1.51l10.86-23.33C37.53,134,39,134,39,134"/><path class="cls-7" d="M41.86,134H40.35s-1.5.1-2.72,2.72l-10.9,23.41h1.51L39.1,136.83C40.4,134,41.86,134,41.86,134"/><path class="cls-7" d="M44.73,134H43.22s-1.5.1-2.72,2.72l-10.9,23.41h1.51L42,136.83c1.3-2.79,2.75-2.79,2.75-2.79"/><path class="cls-7" d="M39.69,145l7.07,15.19h1.51l-7.82-16.81L39.69,145"/><path class="cls-7" d="M38.26,148.07l5.63,12.1H45.4L39,146.44l-.76,1.62"/><path class="cls-7" d="M42.57,138.81l9.94,21.36H54l-10.7-23-.75,1.62"/><path class="cls-7" d="M41.13,141.9l8.51,18.27h1.51l-9.26-19.9-.75,1.62"/><path class="cls-7" d="M69.21,134s-1.5.1-2.72,2.72l-10.25,22-.68-1.47,9.53-20.48c1.3-2.79,2.75-2.79,2.75-2.79H66.34s-1.5.1-2.72,2.72L54.81,155.7l-.68-1.46,8.1-17.4c1.3-2.79,2.75-2.79,2.75-2.79H63.47s-1.5.1-2.72,2.72l-7.38,15.85-.68-1.47,6.66-14.31c1.3-2.79,2.75-2.79,2.75-2.79H60.6s-1.5.1-2.72,2.72l-5.94,12.76-.68-1.46,5.23-11.23c1.3-2.79,2.75-2.79,2.75-2.79H57.73s-1.5.1-2.72,2.72l-4.51,9.68L45,134.65a5.24,5.24,0,0,0-1,1.17l11.34,24.36h1.73L68,136.84c1.3-2.79,2.75-2.79,2.75-2.79Z"/><polygon class="cls-7" points="135.34 139.84 130.53 150.1 126.44 139.84 121.07 139.84 111.52 160.18 118.04 160.18 122.87 149.9 126.94 160.18 132.34 160.18 141.88 139.84 135.34 139.84"/><polygon class="cls-7" points="89.64 139.84 84.83 150.1 80.74 139.84 75.37 139.84 65.82 160.18 72.34 160.18 77.17 149.9 81.24 160.18 86.64 160.18 96.19 139.84 89.64 139.84"/><polygon class="cls-7" points="166.65 139.84 158.03 139.84 147.91 147.17 147 147.17 150.44 139.84 143.92 139.84 134.38 160.18 140.89 160.18 144.34 152.83 146 152.83 149.23 160.18 156.35 160.18 152.14 150.41 166.65 139.84"/><polygon class="cls-7" points="203.73 139.84 198.91 150.1 194.82 139.84 189.46 139.84 179.91 160.18 186.42 160.18 191.25 149.9 195.32 160.18 200.72 160.18 210.27 139.84 203.73 139.84"/><path class="cls-7" d="M211.93,154.52l4.24-9h14.3l2.65-5.66H216.91A7.23,7.23,0,0,0,213.1,141a6.71,6.71,0,0,0-2.65,2.84l-5.33,11.35a3.33,3.33,0,0,0,.14,3.5,3.72,3.72,0,0,0,3.28,1.51h15l6.11-13H216.58l-2.65,5.66h6.56l-.8,1.7Z"/><path class="cls-7" d="M112.81,139.85h-8.25c-2.39,0-5.36,1.94-6.65,4.32h0l-9.22,16h6.52l2.17-3.77h7.22l-1.37,3.77h6.52l5.83-16h0c.87-2.37-.35-4.3-2.72-4.32m-12.2,10.91,3-5.25h4.91l-1.91,5.25Z"/><path class="cls-7" d="M181.2,139.85h-8.25c-2.38,0-5.36,1.94-6.65,4.32h0l-9.22,16h6.52l2.17-3.77H173l-1.38,3.77h6.52l5.83-16h0c.87-2.37-.35-4.3-2.72-4.32M169,150.75l3-5.25h4.91L175,150.75Z"/><path class="cls-7" d="M130.89,171.8h-2l1.45-3.15a6.52,6.52,0,0,1,.9-1.32,3.53,3.53,0,0,1,2.65-1.34h4.63l-.49,1.07h-3.66a2,2,0,0,0-1.71.9,2.66,2.66,0,0,0-.21.47h5l-.44,1h-5Z"/><path class="cls-7" d="M143.88,166c1,0,1.37.23,1.55.78a1.83,1.83,0,0,1-.1,1.14c-.36,1-1,1.47-1.62,1.47h-.49l.73,2.42h-2l-.78-2.42h-1.49l-1.11,2.42h-2l2.67-5.81Zm.08,2.2a1,1,0,0,0,.21-.5c0-.23,0-.63-.87-.63h-2.55l-.63,1.37h3.31a.74.74,0,0,0,.53-.24"/><path class="cls-7" d="M193.19,166c1,0,1.37.23,1.55.78a1.84,1.84,0,0,1-.1,1.14c-.36,1-1,1.47-1.63,1.47h-.49l.73,2.42h-2l-.78-2.42H189l-1.11,2.42h-2l2.67-5.81Zm.08,2.2a1,1,0,0,0,.21-.5c0-.23,0-.63-.87-.63h-2.55l-.63,1.37h3.31a.74.74,0,0,0,.53-.24"/><path class="cls-7" d="M147.37,169.38l-.17.38a.74.74,0,0,0,0,.72c.12.18.38.27.78.27h3.75l-.48,1h-4.69c-1,0-1.57-.34-1.56-1a2.74,2.74,0,0,1,.23-1l.51-1.11a6.65,6.65,0,0,1,.9-1.32,3.53,3.53,0,0,1,2.65-1.34h4.63l-.49,1.07h-3.66a2,2,0,0,0-1.71.9l-.21.47h5l-.44,1Z"/><path class="cls-7" d="M155,169.38l-.17.38a.75.75,0,0,0,0,.72c.12.18.38.27.78.27h3.75l-.48,1H154.2c-1,0-1.57-.34-1.56-1a2.8,2.8,0,0,1,.23-1l.51-1.11a6.65,6.65,0,0,1,.9-1.32,3.53,3.53,0,0,1,2.65-1.34h4.63l-.49,1.07h-3.67a2,2,0,0,0-1.71.9l-.21.47h5l-.44,1Z"/><polygon class="cls-7" points="167.68 171.8 165.68 171.8 166.99 169.27 166.33 165.99 168.33 165.99 168.56 168.1 172.13 165.99 173.74 165.99 169.21 168.88 167.68 171.8"/><polygon class="cls-7" points="215.2 171.8 213.2 171.8 214.51 169.27 213.85 165.99 215.85 165.99 216.07 168.1 219.65 165.99 221.25 165.99 216.73 168.88 215.2 171.8"/><path class="cls-7" d="M172.83,171.8h0c-1,0-1.57-.34-1.56-1a2.79,2.79,0,0,1,.23-1l.51-1.11a6.67,6.67,0,0,1,.9-1.32,3.52,3.52,0,0,1,2.65-1.32h2.31q1.46,0,1.43,1.32a4.09,4.09,0,0,1-.32,1.32l-.51,1.11a4.48,4.48,0,0,1-.71,1,3.23,3.23,0,0,1-2.52,1h-2.36Zm4.75-4.75-1.9,0c-.6,0-1.33.78-1.76,1.58-.74,1.38-.73,2-.18,2.12l1.86,0c.63,0,1.3-.56,1.87-1.64.45-.84.83-2.08.1-2.07"/><path class="cls-7" d="M184.89,169.65l1.69-3.66h1.26l-1.73,3.77a4.5,4.5,0,0,1-.71,1,3.23,3.23,0,0,1-2.52,1h-2.41c-1,0-1.57-.34-1.56-1a2.77,2.77,0,0,1,.23-1l1.73-3.77h2l-1.74,3.79c-.19.47-.06,1,.46,1s.65,0,1.35,0a2.19,2.19,0,0,0,1.94-1.1"/><path class="cls-7" d="M202.63,167.87c.4-.34.7-.26.88.13s.86,2.15.86,2.15l1.91-4.16h1.21l-2.67,5.81h-1.41c-.56,0-.83-.75-.93-1.09l-.19-.63-.73.63c-.42.34-1.25,1.09-2,1.09h-2l2.67-5.81h1.21l-1.83,4.16Z"/><path class="cls-7" d="M208.5,170.16l-1.07,1.64h-2l3.8-5.81h3.6c.41,0,.57.23.49.7l-.93,5.11h-1.25l.3-1.64Zm.63-1h2.46L212,167h-1.42Z"/><path class="cls-9" d="M273.87,153.27c1.4-4,5.3-7.83,9.6-8.48,3.59-.5,7-.65,9.62,1.26-.67,1.38-1.42,2.83-1.42,2.83a9.61,9.61,0,0,0-1.8-.88,4.79,4.79,0,0,0-4.63.24l-.54.87-2.94,11.18a1.53,1.53,0,0,0,.18,1.16c.69.69,1.85.26,2.78.39l.31-.31,2-7.45,8.6.07.1.18c-.83,3.32-1.56,6.66-2.5,9.93l-.18.18-13.51-.06a5.43,5.43,0,0,1-5-2.39c-.08-.52-.64-.8-.61-1.37h-.13a14.86,14.86,0,0,1,.1-7.36Z"/><path class="cls-9" d="M375.38,153.18c1.28,2.48,2.84,5.32,4,7.82l-.13.36c-3.43,3.39-6.84,7.83-11.45,9.05-.44.05-.57-.29-.67-.62.06-2.34,2.61-3.49,3.6-5.47.93-1.69,1.14-3.7,2-5.45a46.34,46.34,0,0,1,2.41-5.42l.26-.27Z"/><path class="cls-9" d="M368,171.42c7.63-2.63,12.08-11.52,19.32-15.39.67-.33,1.21-.95,2-1a1.71,1.71,0,0,1,.56,1.06c-5.1,2.92-9.7,7.59-14,11.93a23.87,23.87,0,0,1-7.32,4.56,3.73,3.73,0,0,1-.54-1.11Z"/><path class="cls-9" d="M373.25,143.64c2.77-1.74,5.46-3.24,8.09-4.56a9,9,0,0,0-.07,4.38l-.13.26-5.7,3.25h-.36a33.38,33.38,0,0,1-2-3.09l.13-.23Z"/><path class="cls-9" d="M375.89,148.28a40.67,40.67,0,0,1,4.89.42v.21a31.67,31.67,0,0,1-4.95,2.46,15.56,15.56,0,0,0,.06-3.09Z"/><path class="cls-9" d="M376.26,152.71a50.28,50.28,0,0,1,5.8-3.07,10.08,10.08,0,0,0,2.46,3.79c1.19-.41,1.4-1.82,2.43-2.34l1.84,2.89-.08.21a50.57,50.57,0,0,0-8.28,6.07h-.26c-1.38-2.48-2.74-5-3.92-7.55Z"/><path class="cls-9" d="M382.07,144.59l-.19,2.88a24.21,24.21,0,0,1-4.45-.12l-.13-.13,4.46-2.64Z"/><path class="cls-9" d="M393.07,144.44h8.85l2.2,6.61.13.18a71.9,71.9,0,0,0,5.58-6.79h4.68v.31l-8.86,11.12s-1.48,5.53-2.32,8.33l-.67.18h-8.73l-.1-.18,2.06-8.44-3.44-11a1.83,1.83,0,0,0,.62-.31Z"/><path class="cls-9" d="M416.23,144.59l.21-.13,15.85,0c.15,0,.39.17.39.17l-.76,3.45-7.16,0-.31.54-.76,3.83.18.13,4.32-.08-.89,3.92-4.74,0s-.75,2.85-1,4.32l.18.13,6.69,0,.18.13a18.76,18.76,0,0,1-.81,3.2l-.44.19-15.88.07,4.74-19.86Z"/><path class="cls-9" d="M305.32,145.53a13,13,0,0,1,12.25.4,9.25,9.25,0,0,1,2.62,9.45c-1.09,4-4.53,8.3-8.8,9.19-4,1-8.7.57-11.29-2.76-2.38-2.89-1.85-7.7-.15-10.81a12.81,12.81,0,0,1,5.37-5.47Zm1.32,14.39a2,2,0,0,0,.25,1.91,1.83,1.83,0,0,0,1.47.26,2.41,2.41,0,0,0,1.32-1.05c1.07-3.47,1.64-7.15,2.63-10.67,0-1,1-2.22-.18-2.79a2.36,2.36,0,0,0-2.36.54,35.15,35.15,0,0,0-1.48,5.38c-.47,2.19-1.09,4.3-1.64,6.43Z"/><path class="cls-9" d="M328.61,146.22a13.71,13.71,0,0,1,12.61-1.09c2.93,1.42,4,4.57,4.12,7.63a12.63,12.63,0,0,1-6.83,10.89l-2.6,1c-3.73.48-7.83.29-10.49-2.5-2.49-2.48-2.68-6.65-1.59-9.81a11.75,11.75,0,0,1,4.78-6.16Zm2.92,15.2a1.82,1.82,0,0,0,1.54.31,2.8,2.8,0,0,0,1.37-1.18l1.74-7.28a4.56,4.56,0,0,1,.26-1.16c.21-1.52,1-2.79.87-4.33-.2-.21-.42-.68-.73-.74a2.08,2.08,0,0,0-2,.53c-1.32,3.73-1.9,7.77-2.94,11.63-.05.72-.49,1.52-.08,2.21Z"/><path class="cls-9" d="M350.62,144.61l.51-.13h13.15c2.11.29,4.06,2.33,4.85,4.34,1.4,4.38-.34,8.83-3.13,12.14a10.62,10.62,0,0,1-7.68,3.45l-12.35,0s3.75-16.27,4.64-19.77Zm4.82,16.61c.62.41,1.36.06,2,.08.62-.15.88-.69,1.19-1.18,0,0,3.24-11.35,2.67-12.15-.59-.59-1.45-.38-2.51-.38a5.62,5.62,0,0,0-.18.62l-3.2,13Z"/><path class="cls-9" d="M384.08,137.11c3-2.54,7.16-1.68,11.07-1.74a52.32,52.32,0,0,0,15.14-.52c.13,1.5-1,2.8-2.3,3.57-3.4,1.82-7.7,1.19-11.56,1v.23l1.59.62c0,.52-.59.79-1,1-.62.26-1.37.23-2,.48.18.23.7.05.62.49a4,4,0,0,1-4.51.66l-.18.2a6.05,6.05,0,0,1-.71,3.63c-.49.07-.77-.36-1.16-.54-.31.77-.19,1.85-.78,2.52-.51,0-.92-.7-1.39-.88a15.1,15.1,0,0,1-1.81,3.65c-.93-.05-1.38-1.19-1.77-1.91a11.78,11.78,0,0,1-.11-4.84,5.53,5.53,0,0,1-.91-4.95,5,5,0,0,1,1.73-2.65Zm1.48,5.33-1.23-.13.1.23c.9.08.73,1.28,1.48,1.48l-.34-1.58.63-2.91a1.93,1.93,0,0,0,1.6.13c.44-.67,1.35-.6,2.1-.62s.56-1.32,1.35-1c.28-.08.77-.28.75-.54-.83.46-1.77-.73-2.29.3a3.35,3.35,0,0,1-1.85.48,1.93,1.93,0,0,1-1.65,1.23l-.63,2.91Z"/><path class="cls-9" d="M441.07,144.42h7.85l.31.34,2.05,19.63c0,.1-8.91,0-8.91,0l-.35-3.09-6.79,0-2,3.05-4,0s10-17,11.85-20Zm-3.67,13.31h4.12l-.6-6-3.52,6Z"/><path class="cls-9" d="M458.05,144.64l.26-.18h15.62c1.77.06,3.06,1.37,4,2.79a6.41,6.41,0,0,1-.09,6.1,10.59,10.59,0,0,1-3.59,3.64c.45,2.29,1,4.57,1.52,6.91.08.31-.08.51-.36.49l-8.72,0-.31-.18-1.58-5.62c-.13-.23-.41-.11-.62-.13l-.26.36-1.43,5.33-.26.2-8.88,0a1.27,1.27,0,0,1,.13-1.05c1.54-6.22,3.18-12.48,4.61-18.73ZM465,154.8a2.42,2.42,0,0,0,1.61.25,2.17,2.17,0,0,0,1.07-1.12l1.25-4.86a1.38,1.38,0,0,0-.25-1.49,2.24,2.24,0,0,0-1.9,0L465,154.8Z"/><path id="path830" class="cls-7" d="M122.11,242.21a5,5,0,0,1,1.75-2.75,20,20,0,0,1,3.14-1.58c.89-.41,1.46-.62,1.62-1.2s-.23-.9-1.13-.9a1.83,1.83,0,0,0-1.93,1.41h-2.08a4.27,4.27,0,0,1,4.45-3.09c2.29,0,3.28,1,2.86,2.52-.28,1.06-1.09,1.76-2.61,2.46-1.79.83-2.86,1.2-3.1,1.64h4.45l-.47,1.73h-7l.07-.24M117.62,241c1.11,0,1.83-.45,2-1.19s-.27-1.25-1.32-1.25a1.82,1.82,0,0,0-1.89,1.21c-.21.76.23,1.23,1.18,1.23m1.53-4c2.09,0,3,1,2.59,2.72s-2.1,2.9-4.49,2.9-3.44-1.46-2.7-4.22,2.56-4.35,5.19-4.35c1.94,0,2.91,1,2.56,2.48h-2.08c.1-.57-.27-.86-1.05-.86a2.2,2.2,0,0,0-2.22,1.82l0,.13a4.09,4.09,0,0,1,2.24-.63m-9.32,1.13a1.84,1.84,0,0,0,1.9-1.23c.21-.76-.23-1.23-1.19-1.23s-1.84.46-2,1.2.27,1.25,1.32,1.25m-1.89,2c-.08.57.26.84,1,.84a2.19,2.19,0,0,0,2.22-1.82l0-.13a4.1,4.1,0,0,1-2.24.64c-2.09,0-3-1.05-2.59-2.73s2.1-2.89,4.5-2.89,3.43,1.45,2.69,4.21-2.57,4.36-5.19,4.36c-1.94,0-2.9-1-2.55-2.47h2.08ZM102.37,237h-2.21l.37-1.36h.18a2.53,2.53,0,0,0,2.62-1.36h1.73l-2.18,8.14h-2l1.45-5.41ZM87.45,234.1h7.41l-.46,1.71H89.09l-.37,1.39h4.74L93,238.91H88.26l-.49,1.83h5.32l-.46,1.71H85.21Zm-8.51,8.57c-3.08,0-4.54-1.74-3.83-4.39a6.09,6.09,0,0,1,6.18-4.39c2.75,0,4.2,1.38,3.9,3.26H82.92c0-1-.71-1.55-2.08-1.55a3.44,3.44,0,0,0-3.42,2.68c-.45,1.66.32,2.67,2,2.67a3,3,0,0,0,3-1.73h2.29a5.87,5.87,0,0,1-5.74,3.46M66.05,234.1h2.57l2.6,5.89,1.58-5.89h2l-2.24,8.35H70l-2.62-5.94-1.59,5.94h-2l2.24-8.35Zm-4,0h2.09l-2.24,8.35H59.82Zm-9.63,5.46,0,.08c-.25.93.43,1.45,2,1.45,1.24,0,2-.38,2.18-1s-.31-.78-1.4-.9L53.79,239c-2.07-.22-2.9-.94-2.53-2.35.42-1.57,2.25-2.78,4.77-2.78s3.87,1.08,3.43,2.72l0,.07H57.37q.19-1.25-1.71-1.25c-1.2,0-1.95.37-2.11,1s.34.7,1.47.83l1.51.16c2,.23,2.85,1,2.45,2.45-.49,1.84-2.27,2.84-5.2,2.84s-4-1.09-3.53-2.93l0-.17h2.14Z"/><path id="path834" class="cls-7" d="M54.74,199h8.83l-3.91,10.77L72.77,199H84.48L70.23,209.75l4.35,17.79H63.72L62,215.88l-6.3,4.78-2.5,6.88H44.37L54.74,199Zm127.34,17.62,6.83-10.24-.61,10.24Zm5.56,10.87h8.89l0-28.49h-9.66l-21.06,28.49h9l3.14-4.69h10l-.28,4.69Zm-29.06-22c2.29,0,3.73.56,4.31,1.67s.33,3.18-.77,6.2a18.45,18.45,0,0,1-2.47,5,7.07,7.07,0,0,1-2.61,2.13,10.83,10.83,0,0,1-4.16.61h-2.16l5.66-15.57h2.2Zm-19.06,22h13.1a23.58,23.58,0,0,0,5.54-.78,14.68,14.68,0,0,0,4.8-2.26,20,20,0,0,0,4.43-4.22,26.27,26.27,0,0,0,3.62-7.08,22.34,22.34,0,0,0,1.31-5.52,9.27,9.27,0,0,0-.59-4.57,6,6,0,0,0-2.85-3,13,13,0,0,0-5.88-1H149.9l-10.38,28.49ZM116.68,199h8.22l5,15.77L135.64,199H144l-10.37,28.49h-8.32l-5-15.69-5.71,15.69h-8.27L116.68,199Zm-28.86,0h23.66l-2.21,6.09H94.43l-1.64,4.51h13.76l-2.12,5.81H90.68l-2,5.62h15.24l-2.35,6.46H77.45L87.82,199Z"/><path id="path794" class="cls-7" d="M151.17,231.11l-.73,3.49h-3.78l-2.1,10.14h-4.2l2.1-10.14h-3.78l.73-3.49h11.77m5.73,0-2.83,13.64h-4.2l2.83-13.64h4.2m5.06,6h2.21c1.4,0,2-.71,2-1.53,0-.53-.32-1.18-1.41-1.18h-2.27l-.57,2.71m4-6c2.52,0,4.45.69,4.45,3.57a3.63,3.63,0,0,1-3.19,3.76v0c1.24.35,1.41,1.51,1.41,2.79a10.93,10.93,0,0,0,.19,3.48h-4a3.23,3.23,0,0,1-.17-1.34c0-.65.21-1.49.21-2.18s-.53-1.24-1.7-1.24h-1.81l-1,4.76h-4.13l2.83-13.64H166m18.53,0-.71,3.49h-7.07l-.36,1.7h6.55l-.67,3.25h-6.57l-.36,1.7h7.22l-.73,3.49H170.38l2.85-13.64H184.5m6.61-.32c2.9,0,5.52,1.09,5.44,4.45h-3.88a1.24,1.24,0,0,0-.48-1.13,2,2,0,0,0-1.22-.31c-.7,0-1.62.21-1.62,1.11s2,1.09,3.38,1.57c2.37.84,3.17,2.14,3.17,3.76,0,3.28-3.19,4.83-6.15,4.83-3.13,0-6-1.43-5.79-4.91H188a2,2,0,0,0,.52,1.55,2.3,2.3,0,0,0,1.55.35c.82,0,1.83-.42,1.83-1.32s-1.39-1.13-3.28-1.76c-1.66-.55-3.27-1.43-3.27-3.7,0-3.07,3-4.49,5.73-4.49"/><polygon class="cls-7" points="272.22 237.4 286.87 222.76 272.11 208 274.92 208 289.68 222.76 275.03 237.4 272.22 237.4"/><polygon class="cls-7" points="276.73 237.4 291.38 222.76 276.62 208 279.43 208 294.19 222.76 279.54 237.4 276.73 237.4"/><polygon class="cls-7" points="281.25 237.4 295.89 222.76 281.14 208 283.94 208 298.7 222.76 284.05 237.4 281.25 237.4"/><polygon class="cls-7" points="285.76 237.4 300.4 222.76 285.65 208 288.46 208 303.21 222.76 288.57 237.4 285.76 237.4"/><polygon class="cls-7" points="319.67 208 306.32 221.35 305.47 220.5 317.96 208 315.16 208 304.06 219.09 303.21 218.25 313.45 208 310.64 208 301.81 216.84 300.96 215.99 308.94 208 306.13 208 299.55 214.58 298.7 213.73 304.43 208 301.62 208 297.29 212.33 292.97 208 290.16 208 304.91 222.76 290.27 237.4 293.08 237.4 307.72 222.76 322.48 208 319.67 208"/><polygon class="cls-7" points="339.6 211.67 335.16 211.67 330.72 221.1 326.28 211.67 321.85 211.67 328.75 225.66 328.75 234.01 332.69 234.01 332.69 225.67 339.6 211.67"/><path class="cls-7" d="M347.94,211.48a11.36,11.36,0,1,1-11.36,11.36,11.36,11.36,0,0,1,11.36-11.36Zm-7.36,11.36a7.36,7.36,0,1,0,7.36-7.35A7.36,7.36,0,0,0,340.58,222.84Z"/><path class="cls-7" d="M383.62,211.48a11.36,11.36,0,1,1-11.36,11.36,11.36,11.36,0,0,1,11.36-11.36Zm-7.36,11.36a7.36,7.36,0,1,0,7.36-7.35A7.36,7.36,0,0,0,376.26,222.84Z"/><polygon class="cls-7" points="376.02 211.49 371.01 211.49 364.28 220.99 364.28 211.49 360.13 211.49 360.13 233.82 364.28 233.82 364.28 224.62 370.69 233.82 375.69 233.82 367.52 222.87 376.02 211.49"/><polygon class="cls-7" points="407.74 211.67 407.74 221.09 400.13 221.09 400.13 211.67 395.81 211.67 395.81 234.01 400.13 234.01 400.13 225.11 407.74 225.11 407.74 234.01 412.05 234.01 412.05 211.67 407.74 211.67"/><path class="cls-7" d="M429,234h4.31L425,211.67h-4L412.77,234h4.31l2-5.37H427l2,5.37Zm-8.53-9,2.6-7,2.6,7Z"/><path class="cls-7" d="M474.41,234h4.31l-8.25-22.34h-4L458.23,234h4.31l2-5.37h7.9l2,5.37Zm-8.53-9,2.6-7,2.6,7Z"/><polygon class="cls-7" points="455.93 211.67 453.01 211.67 451.83 211.67 445.58 228.26 439.33 211.67 438.15 211.67 435.23 211.67 434.08 211.67 434.08 234.01 438.15 234.01 438.15 219.41 443.65 234.01 443.9 234.01 447.26 234.01 447.51 234.01 453.01 219.41 453.01 234.01 457.08 234.01 457.08 211.67 455.93 211.67"/><polygon class="cls-7" points="126.98 279.12 121.81 285.29 121.81 285.29 121.57 285.57 135.24 285.57 135.26 285.55 140.66 279.12 140.25 279.12 126.98 279.12"/><polygon class="cls-7" points="106.33 275.52 90.95 275.52 89.13 277.7 89.12 277.7 88.9 277.97 108.67 277.97 106.33 275.52"/><path class="cls-7" d="M236.79,279.12H223.65a1.12,1.12,0,0,1-.25.75l-1.19,1.6c-.79,1.06-3.13,1.85-5.23,1.77s-3.12-1-2.33-2.05l1.19-1.6a2.56,2.56,0,0,1,.49-.47H203c-1.32,1.37-2.34,3-1.63,4.31v0a2.3,2.3,0,0,0,.18.26l0,0c1.35,1.68,10.67,1.84,14.84,1.84s14.29-.58,16.7-2.1c1.93-1.22,3.52-2.74,3.7-4.37h0Z"/><path class="cls-7" d="M236.65,277.9c-.74-2.08-5.56-2.39-15.74-2.39-9,0-14.65.95-16.66,2.45h32.42Z"/><polygon class="cls-7" points="123.03 279.12 109.75 279.12 87.93 279.12 82.75 285.3 82.75 285.3 82.52 285.57 96.2 285.57 100.28 280.7 104.35 285.56 104.34 285.57 104.36 285.57 118.01 285.57 123.42 279.12 123.03 279.12"/><polygon class="cls-7" points="157.92 279.12 153.18 279.12 148.03 285.29 148.03 285.29 147.79 285.57 161.46 285.57 165.33 281.07 158.51 279.12 157.92 279.12"/><polygon class="cls-7" points="184.66 279.12 184.07 279.12 179.32 279.12 173.94 285.57 173.94 285.57 187.62 285.57 191.48 281.07 184.66 279.12 184.66 279.12"/><polygon class="cls-7" points="124.38 277.98 126.45 275.52 126.06 275.52 112.77 275.52 110.94 277.7 110.94 277.7 110.72 277.97 124.38 277.98 124.38 277.98"/><polygon class="cls-7" points="143.3 275.52 130 275.52 127.95 277.97 127.97 277.97 141.62 277.98 141.63 277.98 143.7 275.52 143.68 275.52 143.3 275.52"/><polygon class="cls-7" points="202.05 277.98 202.36 277.61 204.14 275.52 204.12 275.52 203.72 275.52 147.26 275.52 145.18 277.97 145.19 277.97 202.04 277.98 202.05 277.98"/><polygon class="cls-7" points="121.57 285.57 135.24 285.57 135.26 285.55 140.66 279.12 126.98 279.12 121.57 285.57"/><polygon class="cls-7" points="127.95 277.97 141.62 277.97 143.68 275.52 130 275.52 127.95 277.97"/><polygon class="cls-7" points="109.75 279.12 87.93 279.12 82.52 285.57 96.2 285.57 100.28 280.7 104.35 285.56 104.34 285.57 104.36 285.57 118.01 285.57 123.42 279.12 109.75 279.12"/><polygon class="cls-7" points="106.33 275.52 90.95 275.52 88.9 277.97 108.67 277.97 106.33 275.52"/><polygon class="cls-7" points="126.45 275.52 112.77 275.52 110.72 277.97 124.39 277.97 126.45 275.52"/><polygon class="cls-7" points="204.14 275.52 147.26 275.52 145.18 277.97 179.9 277.97 193.58 277.97 202.06 277.97 204.14 275.52"/><polygon class="cls-7" points="179.32 279.12 173.94 285.57 187.62 285.57 191.48 281.07 184.66 279.12 179.32 279.12"/><path class="cls-7" d="M223.65,279.12a1.12,1.12,0,0,1-.25.75l-1.19,1.6c-.79,1.06-3.13,1.85-5.23,1.77s-3.17-1-2.38-2.06l1.19-1.6a2.52,2.52,0,0,1,.48-.47H203c-1.43,1.48-2.51,3.28-1.43,4.63,1.35,1.68,10.67,1.83,14.84,1.83s14.29-.57,16.7-2.09c1.93-1.22,3.52-2.74,3.7-4.37Z"/><path class="cls-7" d="M236.67,278l0-.06c-.74-2.08-5.56-2.39-15.74-2.39-9,0-14.65.95-16.66,2.45Z"/><polygon class="cls-7" points="153.18 279.12 147.79 285.57 161.46 285.57 165.33 281.07 158.51 279.12 153.18 279.12"/><polygon class="cls-7" points="82.75 285.3 82.52 285.57 96.2 285.57 100.28 280.7 104.35 285.56 118.01 285.57 123.42 279.12 123.03 279.12 117.83 285.29 104.63 285.29 100.34 280.25 95.97 285.29 82.75 285.3"/><polygon class="cls-7" points="108.67 277.97 88.9 277.97 89.12 277.7 108.4 277.68 108.67 277.97"/><polygon class="cls-7" points="121.81 285.29 135.01 285.29 140.25 279.12 140.66 279.12 135.24 285.57 121.57 285.57 121.81 285.29"/><polygon class="cls-7" points="148.03 285.29 161.28 285.29 164.82 281.17 157.92 279.12 158.51 279.12 165.33 281.07 161.46 285.57 147.79 285.57 148.03 285.29"/><polygon class="cls-7" points="174.18 285.29 187.43 285.29 190.97 281.17 184.07 279.12 184.66 279.12 191.48 281.07 187.62 285.57 173.94 285.57 174.18 285.29"/><path class="cls-7" d="M233.1,283.24c-2.41,1.43-12.52,2-16.7,2s-13.49-.15-14.84-1.73a1.78,1.78,0,0,1-.42-1,1.93,1.93,0,0,0,.42,1.25c1.35,1.68,10.67,1.84,14.84,1.84s14.29-.58,16.7-2.1c1.93-1.22,3.52-2.74,3.7-4.37C236.62,280.66,235,282.09,233.1,283.24Z"/><polygon class="cls-7" points="204.66 277.7 236.56 277.7 236.67 277.97 204.25 277.97 204.66 277.7"/><polygon class="cls-7" points="126.45 275.52 126.06 275.52 124.22 277.7 110.94 277.7 110.72 277.97 124.38 277.98 124.38 277.98 124.38 277.98 126.45 275.52"/><polygon class="cls-7" points="143.7 275.52 143.3 275.52 141.46 277.7 128.19 277.7 127.97 277.97 141.62 277.98 141.62 277.98 141.63 277.98 143.7 275.52"/><polygon class="cls-7" points="204.12 275.52 203.72 275.52 201.88 277.7 188.61 277.7 145.41 277.7 145.19 277.97 202.04 277.98 202.04 277.98 202.05 277.98 204.12 275.52"/><path class="cls-7" d="M215.46,279.59l-1.19,1.6c-.79,1.06.28,2,2.39,2.06H217c-2.07-.09-3.12-1-2.33-2.05l1.19-1.6a2.56,2.56,0,0,1,.49-.47h-.38A2.69,2.69,0,0,0,215.46,279.59Z"/><path class="cls-7" d="M239,272.73a1.35,1.35,0,1,1-1.34,1.35,1.33,1.33,0,0,1,1.34-1.35Zm0,.21a1.14,1.14,0,0,0,0,2.28,1.14,1.14,0,0,0,0-2.28Zm-.25,1.93h-.24v-1.51a3.2,3.2,0,0,1,.43,0,.79.79,0,0,1,.47.11.36.36,0,0,1,.14.31.38.38,0,0,1-.3.36h0c.13,0,.22.14.25.37a1.21,1.21,0,0,0,.09.37h-.25a1.17,1.17,0,0,1-.1-.39.28.28,0,0,0-.32-.26h-.17Zm0-.83h.17c.2,0,.37-.07.37-.26s-.1-.26-.37-.26h-.17Z"/><path class="cls-7" d="M27.63,272.65H19.89l-3.52,3.9h7.74Z"/><polygon class="cls-7" points="31.96 280.54 22.03 292.09 45.79 292.09 49.38 287.92 38.31 287.92 31.96 280.54"/><polygon class="cls-7" points="43.36 280.03 53.28 268.47 31.21 268.47 27.63 272.65 37 272.65 43.36 280.03"/><path class="cls-7" d="M83.95,270.93H85v.21h-.44v1.26h-.23v-1.26h-.44Z"/><path class="cls-7" d="M85.21,270.93h.34l.34,1.17.34-1.17h.34v1.47h-.22v-1.22L86,272.4h-.23l-.34-1.22v1.22h-.22Z"/><path class="cls-7" d="M50.42,276.55l7,2.45s-7,7.83-8,8.92H57c5.76,0,6.59-.81,10.45-5.44l1.36-1.54,3.78-4.39Z"/><g class="cls-10"><path class="cls-11" d="M50.28,276.17l7,2.45s-7,7.83-8,8.92h7.66c5.76,0,6.59-.81,10.45-5.44l1.37-1.54,3.78-4.39Z"/></g><path class="cls-7" d="M76.16,272.65l-3.52,3.9h7.74l3.52-3.9Z"/><g class="cls-12"><path class="cls-11" d="M76,272.41l-3.51,3.9h7.74l3.52-3.9Z"/></g><polygon class="cls-7" points="31.96 280.54 22.29 291.76 45.63 291.76 49.01 287.93 38.31 287.92 31.96 280.54"/><polygon class="cls-7" points="43.38 279.64 52.98 268.47 31.21 268.47 27.83 272.41 37.17 272.38 43.38 279.64"/><path class="cls-7" d="M27.3,272.65H19.89l-3.25,3.6H24Z"/><polygon class="cls-13" points="30.9 268.84 52.95 268.84 53.25 268.48 31.21 268.48 30.9 268.84"/><g class="cls-14"><polygon class="cls-15" points="51.09 276.82 72.41 276.82 72.64 276.58 50.41 276.57 51.09 276.82"/></g><g class="cls-16"><polygon class="cls-17" points="72.69 276.55 72.97 276.55 76.46 272.65 76.18 272.65 72.69 276.55"/></g><g class="cls-18"><polygon class="cls-17" points="78.97 276.54 72.98 276.54 73.19 276.3 79.18 276.3 78.97 276.54"/></g><path class="cls-7" d="M87.6,294.3H83.85a2.85,2.85,0,0,1-.77-.09.81.81,0,0,1-.42-.25.62.62,0,0,1-.11-.43,2,2,0,0,1,.16-.6l1.36-3.37h1.44l-1.17,2.91a.67.67,0,0,0-.05.56c.07.13.27.19.62.19H88l-.15.38Z"/><path class="cls-7" d="M93.66,294.3H89.91a2.82,2.82,0,0,1-.76-.09.8.8,0,0,1-.42-.25.62.62,0,0,1-.11-.43,2,2,0,0,1,.16-.6l1.36-3.37h1.44l-1.17,2.91a.66.66,0,0,0-.05.56c.07.13.27.19.62.19h3.12l-.15.38Z"/><path class="cls-7" d="M98.62,292.45H96.46l-.74,1.85H94.29l1.36-3.37a2.74,2.74,0,0,1,.33-.6,1.65,1.65,0,0,1,.45-.43,2.07,2.07,0,0,1,.62-.25,3.52,3.52,0,0,1,.83-.09h2.07a2.88,2.88,0,0,1,.76.08.79.79,0,0,1,.42.25.6.6,0,0,1,.11.42,1.91,1.91,0,0,1-.15.59l-1.37,3.4H98.29l.74-1.85Zm.12-1.08h.73a1.14,1.14,0,0,0,.08-.31.36.36,0,0,0-.05-.23.37.37,0,0,0-.21-.15,1.31,1.31,0,0,0-.4,0h-.81a1.28,1.28,0,0,0-.78.2,1.22,1.22,0,0,0-.4.54Z"/><path class="cls-7" d="M102.86,291.6l-1.09,2.7h-1.42l1.91-4.74h1.42l1.49,2.65,1.07-2.65h1.44l-1.91,4.74h-1.44Z"/><path class="cls-7" d="M107.89,290.64l.43-1.08h5.42l-.43,1.08h-2l-1.48,3.66h-1.42l1.48-3.66Z"/><path class="cls-7" d="M116.8,292.45h-2.16l-.74,1.85h-1.43l1.36-3.37a2.72,2.72,0,0,1,.33-.6,1.65,1.65,0,0,1,.45-.43,2.1,2.1,0,0,1,.62-.25,3.53,3.53,0,0,1,.83-.09h2.07a2.88,2.88,0,0,1,.76.08.8.8,0,0,1,.42.25.59.59,0,0,1,.11.42,1.93,1.93,0,0,1-.16.59l-1.37,3.4h-1.42l.74-1.85Zm.12-1.08h.73a1.14,1.14,0,0,0,.08-.31.36.36,0,0,0,0-.23.37.37,0,0,0-.21-.15,1.31,1.31,0,0,0-.4,0h-.81a1.28,1.28,0,0,0-.78.2,1.22,1.22,0,0,0-.4.54Z"/><path class="cls-7" d="M124.57,293.42a2.21,2.21,0,0,1-.59.6,1.58,1.58,0,0,1-.91.28h-4.53l.43-1.08h3.75c.1,0,.16,0,.18-.07s0,0,0,0,0-.13,0-.14l-2.73-1.18c-.34-.14-.42-.41-.25-.83l.1-.24a.94.94,0,0,1,.09-.15l.13-.15.14-.2a1.38,1.38,0,0,1,.66-.43,3,3,0,0,1,1.12-.21h4l-.45,1.11h-4a.23.23,0,0,0-.2.15c0,.07,0,.1,0,.1l3,1.34a.45.45,0,0,1,.26.51,1.38,1.38,0,0,1-.11.52l0,.07A.16.16,0,0,1,124.57,293.42Z"/><path class="cls-7" d="M128.73,294.3l1.91-4.74h3.74a2.76,2.76,0,0,1,.77.09.78.78,0,0,1,.42.25.62.62,0,0,1,.11.43,2,2,0,0,1-.16.6l-.82,2a2.87,2.87,0,0,1-.33.6,1.65,1.65,0,0,1-.45.43,2.15,2.15,0,0,1-.62.25,3.65,3.65,0,0,1-.83.09Zm2.9-3.66-1,2.58h1.69A1.3,1.3,0,0,0,133,293a1.26,1.26,0,0,0,.41-.56l.43-1.08a.68.68,0,0,0,0-.56c-.07-.13-.27-.19-.62-.19Z"/><path class="cls-7" d="M137.36,292.45H137a.71.71,0,0,0,0,.57c.07.13.27.2.62.2h3.12l-.43,1.08h-3.75a2.86,2.86,0,0,1-.76-.09.79.79,0,0,1-.41-.25.61.61,0,0,1-.11-.43,1.93,1.93,0,0,1,.16-.6l.82-2a2.78,2.78,0,0,1,.33-.6,1.67,1.67,0,0,1,.45-.43,2.08,2.08,0,0,1,.62-.25,3.53,3.53,0,0,1,.83-.09h3.75l-.43,1.08h-3.12a1.28,1.28,0,0,0-.78.2,1.23,1.23,0,0,0-.4.54h4l-.44,1.08Z"/><path class="cls-7" d="M147.22,291.6l-1.08,2.7h-1.42l1.91-4.74H148l1.5,2.65,1.07-2.65h1.44l-1.91,4.74H148.7Z"/><path class="cls-7" d="M156,293.94a2.44,2.44,0,0,1-1.44.35h-2.09a1.37,1.37,0,0,1-1.09-.36,1,1,0,0,1,0-1l1.36-3.37h1.44l-1.17,2.91a.67.67,0,0,0-.05.56c.07.13.27.19.62.19h.8a1.32,1.32,0,0,0,.8-.18,1.42,1.42,0,0,0,.4-.57l1.17-2.91h1.43l-1.36,3.37A2.16,2.16,0,0,1,156,293.94Z"/><path class="cls-7" d="M159.41,292.45H159a.7.7,0,0,0,0,.57c.07.13.27.2.62.2h3.12l-.43,1.08h-3.75a2.82,2.82,0,0,1-.76-.09.8.8,0,0,1-.42-.25.61.61,0,0,1-.11-.43,2,2,0,0,1,.16-.6l.82-2a2.89,2.89,0,0,1,.33-.6,1.66,1.66,0,0,1,.45-.43,2.08,2.08,0,0,1,.62-.25,3.51,3.51,0,0,1,.83-.09h3.75l-.43,1.08h-3.12a1.28,1.28,0,0,0-.77.2,1.21,1.21,0,0,0-.4.54h4l-.44,1.08Z"/><path class="cls-7" d="M170.23,289.56q-2.19,3.28-2.3,3.4a4.49,4.49,0,0,1-.87.86,1.7,1.7,0,0,1-1,.48h-.81a.73.73,0,0,1-.64-.48,1.65,1.65,0,0,1-.2-.85,7.22,7.22,0,0,1,.09-.93q.11-.84.35-2.49h1.44l-.44,2.91a1,1,0,0,0,0,.31.51.51,0,0,0,.06.19.29.29,0,0,0,.11.1l.12,0a.92.92,0,0,0,.35-.14,1.82,1.82,0,0,0,.47-.5l1.89-2.91Z"/><path class="cls-7" d="M173.28,292.45h-2.16l-.74,1.85h-1.43l1.36-3.37a2.8,2.8,0,0,1,.33-.6,1.69,1.69,0,0,1,.45-.43,2.1,2.1,0,0,1,.62-.25,3.51,3.51,0,0,1,.83-.09h2.07a2.89,2.89,0,0,1,.76.08.79.79,0,0,1,.42.25.62.62,0,0,1,.11.42,1.88,1.88,0,0,1-.16.59l-1.37,3.4h-1.42l.75-1.85Zm.12-1.08h.73a1.16,1.16,0,0,0,.08-.31.35.35,0,0,0,0-.23.37.37,0,0,0-.21-.15,1.3,1.3,0,0,0-.4,0h-.81a1.27,1.27,0,0,0-.77.2,1.2,1.2,0,0,0-.4.54Z"/><path class="cls-7" d="M184.31,294.3h-3.74a2.82,2.82,0,0,1-.76-.09.8.8,0,0,1-.42-.25.61.61,0,0,1-.11-.43,2,2,0,0,1,.16-.6l.82-2a2.81,2.81,0,0,1,.33-.6,1.63,1.63,0,0,1,.45-.43,2.06,2.06,0,0,1,.62-.25,3.52,3.52,0,0,1,.83-.09h3.74l-.43,1.08h-3.11a1.28,1.28,0,0,0-.77.19,1.25,1.25,0,0,0-.4.56l-.43,1.08a.7.7,0,0,0,0,.56c.07.13.27.19.61.19h1.69l.63-1.55h1.42Z"/><path class="cls-7" d="M187.52,292.45h-.41a.72.72,0,0,0,0,.57c.07.13.27.2.62.2h3.12l-.43,1.08h-3.75a2.85,2.85,0,0,1-.77-.09.81.81,0,0,1-.42-.25.61.61,0,0,1-.11-.43,2,2,0,0,1,.15-.6l.82-2a2.76,2.76,0,0,1,.33-.6,1.65,1.65,0,0,1,.45-.43,2,2,0,0,1,.62-.25,3.52,3.52,0,0,1,.83-.09h3.75l-.43,1.08h-3.12a1.28,1.28,0,0,0-.78.2,1.23,1.23,0,0,0-.4.54h4l-.44,1.08Z"/><path class="cls-7" d="M193.51,291.6l-1.09,2.7H191l1.91-4.74h1.42l1.49,2.65,1.07-2.65h1.43l-1.91,4.74H195Z"/><path class="cls-7" d="M199.64,292.45h-.41a.71.71,0,0,0,0,.57c.07.13.27.2.62.2h3.12l-.43,1.08h-3.75a2.83,2.83,0,0,1-.76-.09.79.79,0,0,1-.42-.25.6.6,0,0,1-.11-.43,2.09,2.09,0,0,1,.15-.6l.82-2a2.75,2.75,0,0,1,.33-.6,1.65,1.65,0,0,1,.45-.43,2.06,2.06,0,0,1,.62-.25,3.53,3.53,0,0,1,.83-.09h3.75l-.43,1.08h-3.12a1.28,1.28,0,0,0-.78.2,1.22,1.22,0,0,0-.4.54h4l-.44,1.08Z"/><path class="cls-7" d="M208.61,294.3H207l-.92-1.63h-.88l-.66,1.63h-1.42l1.91-4.74h3.76q1,0,1.17.35a1.14,1.14,0,0,1-.06,1l-.16.38a2.18,2.18,0,0,1-.75,1,1.83,1.83,0,0,1-1.1.35h-.21Zm-1.29-2.71a1.31,1.31,0,0,0,.8-.18,1,1,0,0,0,.29-.29.46.46,0,0,0,0-.29c-.05-.12-.27-.18-.65-.18H206l-.38.95Z"/><path class="cls-7" d="M213.51,292.45h-2.16l-.74,1.85h-1.43l1.36-3.37a2.74,2.74,0,0,1,.33-.6,1.63,1.63,0,0,1,.45-.43,2.07,2.07,0,0,1,.62-.25,3.52,3.52,0,0,1,.83-.09h2.07a2.86,2.86,0,0,1,.76.08.79.79,0,0,1,.42.25.59.59,0,0,1,.11.42,1.89,1.89,0,0,1-.16.59l-1.37,3.4h-1.42l.74-1.85Zm.12-1.08h.73a1.09,1.09,0,0,0,.08-.31.36.36,0,0,0,0-.23.37.37,0,0,0-.21-.15,1.31,1.31,0,0,0-.4,0H213a1.28,1.28,0,0,0-.78.2,1.23,1.23,0,0,0-.4.54Z"/><path class="cls-7" d="M221.21,292.93a2.16,2.16,0,0,1-.76,1,2.46,2.46,0,0,1-1.45.35h-2.09a2.82,2.82,0,0,1-.76-.09.8.8,0,0,1-.42-.25.61.61,0,0,1-.11-.43,1.92,1.92,0,0,1,.16-.6l.81-2a2.88,2.88,0,0,1,.33-.6,1.67,1.67,0,0,1,.45-.43,2.07,2.07,0,0,1,.62-.25,3.55,3.55,0,0,1,.83-.09h2.09q1,0,1.17.35a1.14,1.14,0,0,1-.06,1l-.19.46h-1.43a.81.81,0,0,0,.07-.57c-.06-.12-.27-.18-.65-.18H219a1.29,1.29,0,0,0-.77.19,1.27,1.27,0,0,0-.4.56l-.43,1.08a.66.66,0,0,0-.05.56c.07.13.27.19.61.19h.8a1.33,1.33,0,0,0,.8-.18,1.42,1.42,0,0,0,.4-.57h1.43Z"/><path class="cls-7" d="M222.72,294.3H221.3l1.91-4.74h1.42Z"/><path class="cls-7" d="M229.33,292.93a2.15,2.15,0,0,1-.76,1,2.45,2.45,0,0,1-1.44.35H225a1.54,1.54,0,0,1-1.13-.32c-.2-.21-.2-.56,0-1l.82-2a2.08,2.08,0,0,1,.81-1,2.8,2.8,0,0,1,1.42-.35H229c.64,0,1,.12,1.17.35a1.15,1.15,0,0,1-.06,1Zm-1.24-.46.44-1.09a.81.81,0,0,0,.07-.57c-.06-.12-.27-.18-.65-.18h-.8a1.27,1.27,0,0,0-.77.19,1.24,1.24,0,0,0-.4.56l-.43,1.08a.67.67,0,0,0-.05.56c.07.13.27.19.62.19h.8a1.31,1.31,0,0,0,.79-.18A1.41,1.41,0,0,0,228.09,292.47Zm2-4.68L228.32,289h-.89l1.31-1.19Z"/><path class="cls-7" d="M231.93,291.6l-1.09,2.7h-1.42l1.91-4.74h1.42l1.5,2.65,1.07-2.65h1.44l-1.91,4.74h-1.44Z"/><path class="cls-9" d="M372.76,260.32c-56.79,0-102.83,9.05-102.83,20.21s46,20.21,102.83,20.21,102.83-9,102.83-20.21S429.56,260.32,372.76,260.32Zm-.28,36.14c-47.28,0-85.6-7.34-85.6-16.39s38.32-16.39,85.6-16.39,85.6,7.34,85.6,16.39S419.76,296.46,372.48,296.46Z"/><polygon class="cls-9" points="421.56 269.24 413.47 269.24 410.14 291.68 418.28 291.68 421.56 269.24 421.56 269.24"/><path class="cls-9" d="M436.76,276.29l3.13-5.66s-2.63-2.78-10.18-1.54c0,0-7.7,1.79-7.8,8.29,0,0-1,4.52,4.82,5.51a16.05,16.05,0,0,0,1.79.4s2.83.25,1.44,1.94c0,0-2,2.78-7.25-1.34L419.18,290a16.76,16.76,0,0,0,12.17,1.54,9.42,9.42,0,0,0,7.35-7.25,5.11,5.11,0,0,0-2.68-5.86,18.18,18.18,0,0,0-4.77-1.49s-2.33-1,.35-2.28c0,0,3.53-.55,5.16,1.59Z"/><path class="cls-9" d="M411.48,269.14h-8.89l-3,5h-.55l-1.54-4.92h-9l5.36,10.48-9.34,11.42-6-11.62,8.44-10.33h-8.79L374.93,274h-.45L373,269.14h-8.94l5.36,10.38L360.23,291l-4.42-22h-9.19l-10.73,21.06-.3-21.21H327.4l-5.36,12-1.49-12h-8.29l-7.3,22.55h7.65L316,279l1.89,12.51h4.82l6-12.51-.55,12.51h15.59l1.29-2.63h6.41l.55,2.68h16.94l4-6.11h.5l2.23,6.21H393.2l4.22-6.11h.5l2.09,6.21h9.09L403,279.66Zm-64.19,14.19L350,276.4h.31l.44,6.93Z"/><path class="cls-7" d="M198.79,331.36l-2.1,6.87h-6.53l2.1-6.87h-7.48L179,350.17h7.47l2.41-7.89h6.53L193,350.17h7.47l5.76-18.81Z"/><path class="cls-7" d="M238.09,333.41l-.34.25.71-2.3H231l-5.76,18.81h7.47l3.47-11.36a3.43,3.43,0,0,1,3.07-2.64h1.92a1.61,1.61,0,0,1,1.37.6,1.81,1.81,0,0,1,.32,1.1,3.61,3.61,0,0,1-.16,1l-3.45,11.28h7.47l4.06-13.26a6.36,6.36,0,0,0,.28-1.82,4,4,0,0,0-.74-2.42c-.83-1.12-2.3-1.69-4.37-1.69A13,13,0,0,0,238.09,333.41Z"/><path class="cls-7" d="M208.5,332.71l1.16,4a17.65,17.65,0,0,1,5.88-1.37c2.31,0,3.62.31,4.12,1a1.41,1.41,0,0,1,.13,1.31l-.47,1.53-.14,0a18.69,18.69,0,0,0-5.56-1,11.58,11.58,0,0,0-6.5,1.8,8.59,8.59,0,0,0-3.46,4.65,4.57,4.57,0,0,0,.37,4.16c.88,1.2,2.63,1.83,5.05,1.83a16.58,16.58,0,0,0,7-1.66l.29-.14-.43,1.42h7.47l4-13a5.31,5.31,0,0,0,.25-1.54,3.57,3.57,0,0,0-.69-2.17c-1.2-1.62-4-2.48-8-2.48A36.5,36.5,0,0,0,208.5,332.71Zm5.92,9.25a10.3,10.3,0,0,1,3.72.61l.11.05-.84,2.74-.06,0a10.88,10.88,0,0,1-4.18.93,3.09,3.09,0,0,1-2.55-.85,1.32,1.32,0,0,1-.25-.8,1.92,1.92,0,0,1,.09-.57C210.87,342.76,212.35,342,214.42,342Z"/><path class="cls-7" d="M267.23,331.26l-7.16,5.64,1.74-5.64h-7.47l-5.84,19.09H256l2.37-7.76,5.45,7.76h8l-6.85-9.78,11.3-9.31Z"/><path class="cls-7" d="M270.33,340.8h0a7.71,7.71,0,0,0,.87,7c1.55,2.1,4.34,3.25,7.85,3.25,8.26,0,12.91-3.19,15.1-10.33a7.71,7.71,0,0,0-.87-7c-1.55-2.1-4.34-3.25-7.85-3.25C277.85,330.47,272.34,334.24,270.33,340.8Zm7.31,4.19c-.65-.88-.67-2.28-.06-4.26h0c.74-2.42,2.42-5.3,6.25-5.3a3.49,3.49,0,0,1,3,1.11c.65.88.67,2.28.06,4.26-.74,2.42-2.42,5.3-6.25,5.3A3.49,3.49,0,0,1,277.64,345Z"/><path class="cls-7" d="M295.25,340.8h0a7.71,7.71,0,0,0,.87,7c1.55,2.1,4.34,3.25,7.85,3.25,8.26,0,12.91-3.19,15.1-10.33a7.71,7.71,0,0,0-.87-7c-1.55-2.1-4.34-3.25-7.85-3.25C302.76,330.47,297.25,334.24,295.25,340.8Zm13.5-5.37a3.49,3.49,0,0,1,3,1.11c.65.88.67,2.28.06,4.26-.74,2.42-2.42,5.3-6.26,5.3a3.49,3.49,0,0,1-3-1.11c-.65-.88-.67-2.28-.06-4.26h0C303.23,338.31,304.92,335.43,308.75,335.43Z"/><path class="cls-7" d="M335.93,331.1l-7.27,6.13,1.87-6.13h-7.47l-5.94,19.39h7.47l2.41-7.88,5.86,7.88h8.19l-7.34-9.86s10.13-9.06,10.71-9.53Z"/><path class="cls-7" d="M181.26,328.15l-.1-.92h-6.33c.73,7.48-4.43,15.82-11.78,17.81h0a.11.11,0,0,1-.14-.1.11.11,0,0,1,0-.1h0a19.19,19.19,0,0,0,8.8-17.62h-6.2c.27,6.1-3.82,11.64-10.08,13.9a.11.11,0,0,1-.09-.19h0a15.47,15.47,0,0,0,7.08-13.71h-6.2c-.06,7.19-6.52,12.21-19.18,12.21l.53.3c8.23,4.5,12.53,7.27,18.6,12.22a5.23,5.23,0,0,0,3.54,1.2C176.14,352,182,337.62,181.26,328.15Z"/><path class="cls-7" d="M220.2,357.95a2.65,2.65,0,0,1-.83,1.27,3.73,3.73,0,0,1-1.41.72,6.55,6.55,0,0,1-1.79.23h-2l-.74,2.4h-1.85l2.08-6.77h4a4.42,4.42,0,0,1,1.53.24,1.7,1.7,0,0,1,.93.71A1.45,1.45,0,0,1,220.2,357.95Zm-1.91,0a.54.54,0,0,0-.17-.65,1.59,1.59,0,0,0-.92-.21h-2.13l-.54,1.74h2.16a2.19,2.19,0,0,0,1-.22A1.09,1.09,0,0,0,218.29,358Z"/><polygon class="cls-7" points="226.31 362.57 219.68 362.57 221.76 355.8 228.19 355.8 227.78 357.13 223.2 357.13 222.84 358.29 225.5 358.29 225.1 359.61 222.44 359.61 221.94 361.24 226.72 361.24 226.31 362.57"/><path class="cls-7" d="M235,362.57h-2.13l-.9-2.44h-1.87l-.75,2.44h-1.85l2.08-6.77h4.31a4.41,4.41,0,0,1,1.53.24,1.71,1.71,0,0,1,.93.71,1.47,1.47,0,0,1,.07,1.2,3,3,0,0,1-2.39,2Zm-.5-4.59a.54.54,0,0,0-.15-.66,1.56,1.56,0,0,0-.91-.2H231l-.53,1.74h2.42Q234.2,358.86,234.48,358Z"/><polygon class="cls-7" points="244.27 357.13 239.5 357.13 239.11 358.4 241.9 358.4 241.49 359.71 238.7 359.71 237.82 362.57 235.98 362.57 238.06 355.8 244.68 355.8 244.27 357.13"/><path class="cls-7" d="M251.42,359.18a4.86,4.86,0,0,1-1,1.82,5,5,0,0,1-1.75,1.22,5.88,5.88,0,0,1-2.3.45,4.07,4.07,0,0,1-2-.45,2,2,0,0,1-1-1.22,3.09,3.09,0,0,1,.08-1.82,4.72,4.72,0,0,1,1-1.82,5,5,0,0,1,1.75-1.22,5.91,5.91,0,0,1,2.3-.45,4.09,4.09,0,0,1,2,.45,2.08,2.08,0,0,1,1,1.22A3.16,3.16,0,0,1,251.42,359.18Zm-1.91,0a2.43,2.43,0,0,0,.12-1.1,1.1,1.1,0,0,0-.45-.76A1.89,1.89,0,0,0,248,357a2.9,2.9,0,0,0-1.3.29,2.7,2.7,0,0,0-.92.76,3.44,3.44,0,0,0-.55,1.1,2.47,2.47,0,0,0-.12,1.09,1.11,1.11,0,0,0,.45.76,1.87,1.87,0,0,0,1.12.29A2.86,2.86,0,0,0,248,361a2.66,2.66,0,0,0,.92-.76A3.47,3.47,0,0,0,249.51,359.18Z"/><path class="cls-7" d="M258.69,362.57h-2.13l-.91-2.44h-1.86l-.75,2.44h-1.85l2.08-6.77h4.31a4.43,4.43,0,0,1,1.53.24,1.71,1.71,0,0,1,.93.71,1.48,1.48,0,0,1,.07,1.2,3,3,0,0,1-2.39,2Zm-.5-4.59a.55.55,0,0,0-.15-.66,1.57,1.57,0,0,0-.91-.2h-2.42l-.54,1.74h2.42Q257.9,358.86,258.19,358Z"/><path class="cls-7" d="M268.34,362.57h-1.86l.76-2.49.16-.49.19-.58.14-.42-.44.51-.55.61-2.8,3-1-3c-.06-.2-.12-.4-.18-.61s-.1-.38-.12-.51l-.12.42-.16.58c-.06.2-.11.36-.15.49l-.76,2.49h-1.81l2.08-6.77h1.78l1,3.06c.06.2.12.4.17.62s.1.39.12.52l.42-.52.54-.62,2.81-3.06h1.82Z"/><path class="cls-7" d="M277.67,362.57h-2l-.27-1.51H272l-1.19,1.51h-2l5.62-6.77h1.8Zm-2.54-2.79-.22-1.23c0-.2-.06-.39-.08-.58s0-.34,0-.47l-.34.47-.44.58-1,1.23Z"/><path class="cls-7" d="M285.85,362.57H284.2l-2.26-3.69c-.08-.13-.16-.27-.24-.41a3.21,3.21,0,0,1-.17-.35c0,.09-.07.23-.12.41l-.17.57-.15.49-.91,3h-1.83l2.08-6.77h1.77l2.18,3.57.24.41a2.75,2.75,0,0,1,.18.35l.12-.41c0-.18.11-.37.17-.57l.15-.49.88-2.86h1.83Z"/><path class="cls-7" d="M295.76,357.19l-1.89.58a1,1,0,0,0-.49-.54,2.12,2.12,0,0,0-1-.19,2.88,2.88,0,0,0-1.79.6,3.1,3.1,0,0,0-1,1.54,2.12,2.12,0,0,0-.08,1.09,1.22,1.22,0,0,0,.51.76,1.9,1.9,0,0,0,1.1.28,2.72,2.72,0,0,0,1.1-.2,3.58,3.58,0,0,0,1-.65l1.36.68a4.94,4.94,0,0,1-1.67,1.12,5.91,5.91,0,0,1-2.23.4,4.16,4.16,0,0,1-2-.43,2.12,2.12,0,0,1-1-1.21,3,3,0,0,1,.06-1.85,4.55,4.55,0,0,1,1.08-1.82,5.47,5.47,0,0,1,1.82-1.22,6,6,0,0,1,2.28-.45,4,4,0,0,1,2,.42A1.94,1.94,0,0,1,295.76,357.19Z"/><polygon class="cls-7" points="301.61 362.57 294.98 362.57 297.06 355.8 303.49 355.8 303.08 357.13 298.5 357.13 298.14 358.29 300.8 358.29 300.4 359.61 297.74 359.61 297.24 361.24 302.02 361.24 301.61 362.57"/><polygon class="cls-7" points="313.82 357.13 311.17 357.13 309.49 362.57 307.64 362.57 309.31 357.13 306.65 357.13 307.07 355.8 314.23 355.8 313.82 357.13"/><polygon class="cls-7" points="315.17 362.57 313.32 362.57 315.39 355.8 317.25 355.8 315.17 362.57"/><path class="cls-7" d="M324.32,362.57H322.2l-.9-2.44h-1.86l-.75,2.44h-1.85l2.08-6.77h4.31a4.43,4.43,0,0,1,1.53.24,1.71,1.71,0,0,1,.93.71,1.47,1.47,0,0,1,.07,1.2,3,3,0,0,1-2.39,2Zm-.5-4.59a.54.54,0,0,0-.15-.66,1.55,1.55,0,0,0-.91-.2h-2.42l-.54,1.74h2.42Q323.54,358.86,323.83,358Z"/><polygon class="cls-7" points="331.94 362.57 325.32 362.57 327.4 355.8 333.82 355.8 333.42 357.13 328.84 357.13 328.48 358.29 331.14 358.29 330.73 359.61 328.07 359.61 327.57 361.24 332.35 361.24 331.94 362.57"/><path class="cls-7" d="M340.12,360.52a2.61,2.61,0,0,1-1.35,1.56,6.25,6.25,0,0,1-2.95.6,5.64,5.64,0,0,1-2-.33,2.41,2.41,0,0,1-1.21-.9l1.61-.87a2.13,2.13,0,0,0,.91.59,3.79,3.79,0,0,0,1.22.18,3.58,3.58,0,0,0,1.26-.17.87.87,0,0,0,.57-.56.38.38,0,0,0,0-.37,1,1,0,0,0-.52-.28,10.51,10.51,0,0,0-1.22-.27,7.31,7.31,0,0,1-1.4-.35,1.6,1.6,0,0,1-.83-.61,1.26,1.26,0,0,1,0-1.05,2.2,2.2,0,0,1,.78-1.06,4.26,4.26,0,0,1,1.39-.68,6.34,6.34,0,0,1,1.74-.24,5.26,5.26,0,0,1,1.81.28,3.38,3.38,0,0,1,1.23.78l-1.62.95a2.28,2.28,0,0,0-.8-.51,2.94,2.94,0,0,0-1.09-.18,2.59,2.59,0,0,0-1.09.19.74.74,0,0,0-.42.42.31.31,0,0,0,.06.34,1.1,1.1,0,0,0,.5.24c.25.07.6.15,1.06.23s.7.13,1,.23a3.38,3.38,0,0,1,.88.36,1.23,1.23,0,0,1,.54.59A1.27,1.27,0,0,1,340.12,360.52Z"/></g></g></svg>