<?xml version="1.0" encoding="utf-8"?>
<!-- Generator: Adobe Illustrator 21.0.0, SVG Export Plug-In . SVG Version: 6.00 Build 0)  -->
<svg version="1.1" id="Layer_1" focusable="false" xmlns="http://www.w3.org/2000/svg" xmlns:xlink="http://www.w3.org/1999/xlink"
	 x="0px" y="0px" viewBox="0 0 576 512" style="enable-background:new 0 0 576 512;" xml:space="preserve">
<style type="text/css">
	.st0{fill:#FFFF68;}
</style>
<g>
	<path class="st0" d="M280.4,148.3L280.4,148.3L96,300.1V464c0,8.8,7.2,16,16,16l352-0.1c8.8,0,16-7.2,16-16V300L295.7,148.3
		C291.2,144.7,284.8,144.7,280.4,148.3z M271.2,438h-54.6v-23.9h10l-3.9-29.8h-26.2l-3.7,29.8h9.8V438h-55v-23.9h10.7l17.3-112.2
		h-10.2V278h88.3v23.9h-10.8l18.3,112.2h10V438z M351.6,341h2.7l9.8-63h66.7v23.9h-10.5v112.2h10.5V438h-57v-23.9h8.5V299.5h-2.4
		L354.3,438h-12.6l-25.9-138.5h-2.9v114.6h8.3V438h-41.6v-23.9h10.9V301.9h-10.9V278h62.2L351.6,341z"/>
	<polygon class="st0" points="207.2,297.8 199.2,364.3 219.8,364.3 211.5,297.8 	"/>
	<path class="st0" d="M571.6,251.5L571.6,251.5L571.6,251.5L488,182.6V32h-80v84.6L318.5,43c-17.7-14.6-43.3-14.6-61,0L4.3,251.5
		c-5.1,4.2-5.8,11.8-1.6,16.9l0,0l25.5,31c4.2,5.1,11.8,5.9,16.9,1.6l0,0l235.2-193.7c4.5-3.6,10.8-3.6,15.3,0L530.9,301
		c5.1,4.2,12.7,3.5,16.9-1.6l0,0l25.5-31C577.5,263.3,576.8,255.7,571.6,251.5z"/>
</g>
</svg>
