<?xml version="1.0" encoding="utf-8"?>
<!-- Generator: Adobe Illustrator 21.0.0, SVG Export Plug-In . SVG Version: 6.00 Build 0)  -->
<svg version="1.1" id="Layer_1" xmlns="http://www.w3.org/2000/svg" xmlns:xlink="http://www.w3.org/1999/xlink" x="0px" y="0px"
	 viewBox="0 0 500 386.1" style="enable-background:new 0 0 500 386.1;" xml:space="preserve">
<style type="text/css">
	.st0{fill:#D90404;}
	.st1{fill:#FFDB00;}
	.st2{fill:#D92604;}
	.st3{fill:#FFFFFF;}
	.st4{fill:#00539F;}
	.st5{fill:#FFFF68;}
	.st6{fill-rule:evenodd;clip-rule:evenodd;fill:#00539F;}
	.st7{filter:url(#Adobe_OpacityMaskFilter);}
	.st8{fill:url(#SVGID_2_);}
	.st9{mask:url(#SVGID_1_);fill:#D90404;}
	.st10{filter:url(#Adobe_OpacityMaskFilter_1_);}
	.st11{fill:url(#SVGID_4_);}
	.st12{mask:url(#SVGID_3_);fill:#D90404;}
	.st13{opacity:0.7;}
	.st14{filter:url(#Adobe_OpacityMaskFilter_2_);}
	.st15{fill:url(#SVGID_6_);}
	.st16{opacity:0.76;mask:url(#SVGID_5_);fill:#D90404;}
	.st17{filter:url(#Adobe_OpacityMaskFilter_3_);}
	.st18{fill:url(#SVGID_8_);}
	.st19{opacity:0.8;mask:url(#SVGID_7_);fill:#D90404;}
	.st20{filter:url(#Adobe_OpacityMaskFilter_4_);}
	.st21{fill:url(#SVGID_10_);}
	.st22{opacity:0.8;mask:url(#SVGID_9_);fill:#D90404;}
	.st23{fill-rule:evenodd;clip-rule:evenodd;}
	.st24{fill-rule:evenodd;clip-rule:evenodd;fill:#FF4C00;stroke:#000000;stroke-miterlimit:10;}
	.st25{fill:#FF4C00;}
</style>
<title>Artboard 4</title>
<rect x="16.4" y="66.4" class="st0" width="233.6" height="52"/>
<rect x="285.6" y="4.4" class="st1" width="205.6" height="62"/>
<g>
	<path class="st2" d="M473.3,15.2c-0.4,0-169.9,0-169.9,0V53H323V29.3h150.3C483.1,28.3,481,14.9,473.3,15.2z M452.1,24H323v-3.5
		c0,0,128.8-0.1,129.1,0C453.8,20.9,453.9,23.3,452.1,24z"/>
	<path id="path3512" class="st2" d="M329.7,53h11.2V32.5h-11.2V53z"/>
	<path class="st2" d="M373.6,46.2c5.7-2.7,5.2-14-3.4-13.7c-0.6,0-22.6,0-22.6,0V53h11.3v-6.3h2.8l3.5,6.3h13.5L373.6,46.2z
		 M363.3,41.5c-0.4,0-4.4,0-4.4,0v-3.8h4.4C367.3,37.7,367.4,41.5,363.3,41.5z"/>
	<path id="path3516" class="st2" d="M383.5,32.5V53H408v-5.2h-13v-2.7h11.7v-5h-11.6v-2.3h12.1v-5.2H383.5"/>
	<path id="path3518" class="st2" d="M414,32.5V53h22.1v-5.2h-10.6V32.5H414"/>
	<path id="path3520" class="st2" d="M439,32.5V53h22.1v-5.2h-10.6V32.5H439"/>
	<path id="path3522" class="st2" d="M464.5,53h11.2V32.5h-11.2V53z"/>
</g>
<g>
	<path class="st3" d="M26.3,87.5C26.3,82.3,26.3,87.5,26.3,87.5s0-9.8,9.7-9.4c9.7,0.4,9.9,3.4,18.5-0.1c0.6,1.5,0,6.8-5.1,8.2
		c-4.2,1.2-7.8,0.6-7.8,0.6c-0.6,1.3-1,3.3,0,5c2-1.4,5.2-2.7,8.2-0.1L47,97c-1.5-0.6-3.6-0.9-4.6-0.1c0.3,2.4,0.6,5.5-0.9,7.5
		c-1.5,2-3.8,4.8-9.1,3.8c1.3-2.9,1.9-3.1,0.4-10.2C31.1,89.7,35,86.3,35,86.3C32.6,85.1,26.3,87.5,26.3,87.5"/>
	<path class="st3" d="M54.1,86.4l8-2.9c2.3-0.1,3.2,4.2,3.1,7.1c-0.3,5.2-0.1,8.8,2.4,9.6l-8.2,2.8c-1.7-0.9-3.4-1.4-3.3-5.3
		c0.1-3.9-0.1-7.3-0.1-8.3C55.9,88.3,54.1,86.4,54.1,86.4"/>
	<path class="st3" d="M82,91c0,0,1.9,3,2.4,3.8l6.9-3.7l-4.6-7.3l-6.6,2.7c-0.5-1.7-1.3-3-2.6-2.9l-7.6,2.9c0,0,1.8,1.9,1.8,2.9
		c0,1,0.3,4.3,0.1,8.3c-0.1,4,1.7,4.5,3.3,5.3l7.8-2.8c-2.3-0.7-2.6-3.9-2.4-8.6L82,91z"/>
	<path class="st3" d="M105.1,96.7l10.4-5.1l-6.5-7.9c0,0-0.1,0-0.2,0h-0.1h0.1c-1.2,0-7.3,0.4-10.7,2.4c-3.8,2.3-5.2,5-4.8,8.7
		c0.4,3.7,4.6,8.4,10.3,8.4c3.3,0,5.3,0.3,8-1.1l3.4-5.5C110.7,98,107.2,98.9,105.1,96.7 M108.9,83.7L108.9,83.7L108.9,83.7z
		 M109,83.7L109,83.7L109,83.7z M102.1,93.7c-0.9-1.9-0.7-3.9,1.2-4.7l2.3,2.8L102.1,93.7z"/>
	<path class="st3" d="M230.3,96.9l10.5-5.1l-6.5-7.9c0,0-0.1,0-0.2,0c-0.1,0-0.1,0-0.2,0c0.1,0,0.1,0,0.2,0c-1.2,0-7.3,0.4-10.7,2.4
		c-3.8,2.3-5.2,5-4.9,8.7c0.4,3.7,4.6,8.4,10.3,8.4c3.3,0,5.4,0.3,8-1.2l3.4-5.5C235.9,98.2,232.5,99.1,230.3,96.9 M234.1,83.9
		C234.1,83.9,234.1,83.9,234.1,83.9C234.1,83.9,234.1,83.9,234.1,83.9 M234.2,83.9L234.2,83.9L234.2,83.9z M227.3,93.9
		c-0.9-1.9-0.7-3.9,1.2-4.7l2.3,2.8L227.3,93.9z"/>
	<path class="st3" d="M139.9,89.1l-2.4,2.3c0,0-3.9-2.1-4.8-2.7c-1.4-1-2.6-0.1-1.6,0.8c1,0.9,5.8,3.7,7.7,5
		c1.7,1.1,2.8,2.9,0.3,4.7c-2.6,1.8-9.7,5.2-9.7,5.2l-9.9-6l2.4-2.4c0,0,5.5,3.1,6.1,3.6c0.6,0.5,2.7-0.4,0.8-1.5
		c-1.9-1.2-7.3-4.2-8.3-5.1c-1-0.9-2.2-2.7,1.3-4.6c3.4-1.9,8.3-4.7,8.3-4.7L139.9,89.1z"/>
	<path class="st3" d="M154.3,89.5h4.7v-4.8h-4.7v-4.7l-13.1,9.6h4.1v8.4c0,2.2,0.9,4.2,3.2,5.3l8.3-3c-2.8-2.2-2.5-2.9-2.5-3.5
		L154.3,89.5L154.3,89.5z"/>
	<path class="st3" d="M182.8,88c-3.1-2.9-9.4-4.5-9.4-4.5s-8.4,2.1-10.8,6c-2.3,3.7-0.3,7.4,1.9,9.8c2.2,2.4,5.9,3.3,9.9,4.2
		c0,0,3.2-0.6,7.3-3.2c3.3-2.1,3.6-4.1,3.6-6.6C185.2,91.2,185.6,90.7,182.8,88 M175.3,97.9c-6.6-2.8-3.2-9.3-3.2-9.3
		S178.6,92,175.3,97.9"/>
	<path class="st3" d="M197,84l-8,3l2.2,2.7v10.4c0,0.8,0.4,2.3,2.6,3.3l7.9-2.5c-1.8-1.7-2-2.6-2-3.6V91l2.8-0.9
		c1.1,0.9,1.6,1.5,1.6,2.8v6.5c0,0.5,0,1.7,1,2.7c1,1,1.8,1.7,1.8,1.7l7.9-3.1c-0.9-0.5-2.3-1.3-2.3-3.7c0-2.4,0.3-6.8,0-7.9
		c-0.3-1.1-1.4-5.6-6.5-4.5c-3.2,0.7-6.8,2.4-6.8,2.4S198.5,85.5,197,84"/>
</g>
<g id="layer1" transform="translate(-3217.8576,561.96182)">
	<g id="g19563" transform="translate(35.4331,35.4798)">
		<path id="path19014" class="st4" d="M3481.6-485.5v-35.9H3658v35.9H3481.6L3481.6-485.5z"/>
		<path id="path19016" class="st5" d="M3618.4-492.5h-136.8v2.2h136.2L3618.4-492.5"/>
		<path id="path19018" class="st3" d="M3509-513.1l-5.7,8.6c0,0,0.4-4.5,0.5-5.6c0.1-0.8,0-3-2-3c-2,0-9,0-9,0l-5.9,16h7l4.3-11.6
			l-0.9,11.6h6.3l7.7-11.4L3507-497h7.1l5.9-16H3509"/>
		<path id="path19020" class="st3" d="M3547.3-497.3c-0.3,0.1-3,0.6-5.9,0.7c-5,0.1-9.4-1.9-9.5-5.5c-0.1-6.3,6.3-9.8,11-10.7
			c2.1-0.4,6.2-0.9,10.2,0.1l-2.3,5.6c-0.7-1.5-2.4-1.6-3.1-1.6c-1.7,0-3.1,0.4-4.2,0.9c-2.4,1.1-4.4,4.6-1.1,5.9
			c1.9,0.7,4.2,0.2,6.7-0.2L3547.3-497.3"/>
		<path id="path19022" class="st3" d="M3619.6-497h-7.8l5.9-16h7.8L3619.6-497"/>
		<path id="path19024" class="st3" d="M3526.3-497h-7.8l5.9-16h7.8L3526.3-497"/>
		<path id="path19026" class="st3" d="M3568.2-513.1l-2.1,5.8h-3.9l2.1-5.8h-7.4l-5.9,16h7.4l2-5.4h3.9l-2,5.4h7.4l5.9-16H3568.2"/>
		<path id="path19028" class="st3" d="M3603.8-502.4l3.9-10.7h-7.6l-5.9,16h15.2l2-5.3H3603.8"/>
		<path id="path19030" class="st3" d="M3644.6-513.1l-4.1,11c0.1-1.1,0.3-5.5,0.4-8c0.1-1-0.2-1.8-0.7-2.4c-0.6-0.6-1.4-0.6-1.4-0.6
			h-9l-5.9,16h6.6l4.2-11.4l-0.5,11.4h11l5.9-16H3644.6"/>
		<path id="path19032" class="st3" d="M3583-501.4l0.7-1.8h8.4l1.5-3.9h-8.4l0.6-1.8h8.9l1.6-4.2H3580l-5.9,16h16.4l1.6-4.3H3583"/>
	</g>
</g>
<path id="path7626" d="M116.3,35.7l-2.1,7.8c-0.4,0-1,0.1-1.9,0.1c-4.2,0-3.7-1.3-1.9-8c1.8-7,2.9-8.3,5.5-8.3
	c2.5,0,2.5,1.7,1.9,3.8h6.3c1-4,0.3-7.5-7.1-7.5c-8.2,0-10.5,1.7-13.1,12c-2.5,9.6-1.7,12.1,7.3,12.1c4.2,0,6-0.3,8.6-0.8l3-11.2
	L116.3,35.7L116.3,35.7z M131.4,43.4c-0.8,0-1.1-0.3-1-0.9l1.4-5.6h8.5l1-3.7h-8.5l1-3.8c0.3-1,1-1.8,2.3-1.8h6.8l1-3.7H134
	c-4.1,0-5.3,0.7-6.9,6.9L124.1,42c-0.9,3.8,0.2,5.4,3.3,5.4h8.5c1.7,0,2.8-0.9,3.3-2.3l0.7-1.8L131.4,43.4L131.4,43.4z M228.3,43.4
	c-0.8,0-1.1-0.3-1-0.9l1.4-5.6h8.5l1-3.7h-8.5l1-3.8c0.3-1,1-1.8,2.3-1.8h6.8l1-3.7h-9.9c-4.1,0-5.3,0.7-6.9,6.9L221,42
	c-0.9,3.8,0.2,5.4,3.3,5.4h8.5c1.7,0,2.8-0.9,3.3-2.3l0.7-1.8L228.3,43.4L228.3,43.4z M88.7,43.4H87l4.1-15.8c0.5,0,0.7,0,2,0
	c3.7,0,3.7,1.2,1.9,8C93.3,42.4,92.2,43.4,88.7,43.4 M94.2,23.9h-8.5l-5.9,22.8c-0.1,0.4,0.1,0.7,0.5,0.7h7.6
	c9.5,0,11.1-1.8,13.7-11.9C103.8,26.8,102.4,23.9,94.2,23.9 M212.8,23.8c-4.9,0-7.2,0.1-8.5,0l-5.9,22.8c-0.1,0.4,0.1,0.7,0.5,0.7
	h5.7l5.1-19.9c0.5,0,1.3,0,2.1,0c2.8,0,3.1,1,2.4,3.8l-4,15.4c-0.1,0.4,0.1,0.7,0.5,0.7h5.7l4.2-16.1
	C222,25.7,219.6,23.8,212.8,23.8 M163.7,23.9l-1,3.8h6.3c0.1,0,0.1,0.1,0,0.1c-1,0.8-1.6,1.8-1.9,3L163,46.7
	c-0.1,0.4,0.1,0.7,0.5,0.7h6.1l5.1-19.7h3.1c1.7,0,2.8-0.7,3.4-2.3l0.6-1.6L163.7,23.9L163.7,23.9z M75.5,47.4l5.9-22.8
	c0.1-0.4-0.1-0.7-0.5-0.7h-6L69,46.7c-0.1,0.4,0.1,0.7,0.5,0.7H75.5z M186.4,43.8c-2.7,0-3.1-1-1.2-8.3c1.6-6.1,3.1-8.2,5.5-8.2
	c2.7,0,3,1.5,1.3,8.2C190.2,42.2,188.5,43.8,186.4,43.8 M191.6,23.6c-7.1,0-10.2,1.3-13,12.1c-2.4,9.4-0.5,12.1,6.8,12.1
	c7.4,0,10.3-1.5,13-12.1C200.3,28,199.9,23.6,191.6,23.6"/>
<path id="path7628" class="st0" d="M21.8,35.8l3.7-12.9c0.4-1.3,1.8-2.5,3.3-2.5h11.3c0.2,0,0.2,0.2,0.1,0.3
	c-5.9,4-12.9,10-18.1,15.3C22,36.1,21.8,36,21.8,35.8"/>
<path id="path7630" d="M30.7,43.6l3.7-12.8c0.1-0.2-0.2-0.3-0.3-0.2C28.7,35.3,22.2,42,18.2,47.1c-0.1,0.1,0,0.3,0.1,0.3h15.8
	c6.7,0,10.3-2.1,11.6-7c1.1-4-1-6.8-4.4-7.5c-0.1,0-0.1-0.1,0-0.1c2.8-0.5,5.7-1.6,6.7-5.8c1.1-4.5-2.3-7-6.3-6.7l-6,21.2
	c-0.3,1.1-1.6,2.1-2.7,2.1L30.7,43.6z M65.1,38c-0.2-0.7-0.4-1.2-0.8-1.6c0-0.1-0.1-0.1,0-0.2c2.7-0.8,4.5-2.5,5.2-5.4
	c1-3.8-1.4-6.9-7.5-6.9H53l-5.9,22.8c-0.1,0.4,0.1,0.7,0.5,0.7h5.7l5.1-19.9c0.5,0,1.1,0,2.4,0c2.2,0,3,1.3,2.5,3.2
	c-0.6,2.4-2.5,3.7-4.7,3.7h-0.8l2.4,11.4c0.3,1.1,0.8,1.6,2.1,1.6h5.1L65.1,38z M142.2,39.5c-2.4,5.7,0.7,8.3,7.1,8.3
	c5.8,0,9-1.4,10.4-6.7c0.5-1.8,0.2-3.8-1-5c-2.2-2.4-6.4-2.8-7.8-4.2c-0.7-0.7-0.7-1.7-0.5-2.5c0.4-1.5,1.4-2.4,3.1-2.4
	c2.6,0,2.7,1.6,2.1,3.5h5.6c1.3-4-0.4-7.2-7.1-7.2c-5.6,0-8.6,2.2-9.7,6.4c-0.3,1.2-0.2,3,0.5,4.2c1.5,2.6,5.6,3,7.9,4.5
	c1,0.7,1,1.6,0.7,2.6c-0.5,2-1.5,2.9-3.5,2.9c-1.9,0-3-1.1-1.9-4.5H142.2L142.2,39.5z"/>
<g>
	<g>
		<path class="st2" d="M33.2,134h-1.5c0,0-1.5,0.1-2.7,2.7c-1.2,2.6-10.9,23.4-10.9,23.4h1.5c0,0,9.6-20.5,10.9-23.3
			C31.8,134,33.2,134,33.2,134"/>
		<path class="st2" d="M36.1,134h-1.5c0,0-1.5,0.1-2.7,2.7c-1.2,2.6-10.9,23.4-10.9,23.4h1.5c0,0,9.6-20.5,10.9-23.3
			C34.7,134,36.1,134,36.1,134"/>
		<path class="st2" d="M39,134h-1.5c0,0-1.5,0.1-2.7,2.7c-1.2,2.6-10.9,23.4-10.9,23.4h1.5c0,0,9.6-20.5,10.9-23.3
			C37.5,134,39,134,39,134"/>
		<path class="st2" d="M41.9,134h-1.5c0,0-1.5,0.1-2.7,2.7c-1.2,2.6-10.9,23.4-10.9,23.4h1.5c0,0,9.6-20.5,10.9-23.3
			C40.4,134,41.9,134,41.9,134"/>
		<path class="st2" d="M44.7,134h-1.5c0,0-1.5,0.1-2.7,2.7c-1.2,2.6-10.9,23.4-10.9,23.4h1.5c0,0,9.6-20.5,10.9-23.3
			C43.3,134,44.7,134,44.7,134"/>
		<path class="st2" d="M39.7,145l7.1,15.2h1.5l-7.8-16.8C40.2,143.9,40,144.4,39.7,145"/>
		<path class="st2" d="M38.3,148.1l5.6,12.1h1.5L39,146.4C38.8,147,38.5,147.5,38.3,148.1"/>
		<path class="st2" d="M42.6,138.8l9.9,21.4H54l-10.7-23C43.1,137.6,42.9,138.1,42.6,138.8"/>
		<path class="st2" d="M41.1,141.9l8.5,18.3h1.5l-9.3-19.9C41.6,140.8,41.4,141.3,41.1,141.9"/>
		<path class="st2" d="M69.2,134c0,0-1.5,0.1-2.7,2.7c-1,2.2-8.1,17.3-10.3,22l-0.7-1.5c2.7-5.7,8.5-18.3,9.5-20.5
			c1.3-2.8,2.8-2.8,2.8-2.8h-1.5c0,0-1.5,0.1-2.7,2.7c-0.9,1.8-5.9,12.7-8.8,18.9l-0.7-1.5c2.9-6.3,7.3-15.6,8.1-17.4
			c1.3-2.8,2.8-2.8,2.8-2.8h-1.5c0,0-1.5,0.1-2.7,2.7c-0.7,1.6-4.5,9.6-7.4,15.9l-0.7-1.5c2.7-5.9,5.9-12.8,6.7-14.3
			c1.3-2.8,2.8-2.8,2.8-2.8h-1.5c0,0-1.5,0.1-2.7,2.7c-0.6,1.3-3.4,7.2-5.9,12.8l-0.7-1.5c2.3-5,4.6-10,5.2-11.2
			c1.3-2.8,2.8-2.8,2.8-2.8h-1.5c0,0-1.5,0.1-2.7,2.7c-0.5,1.1-2.4,5.2-4.5,9.7L45,134.7c-0.3,0.3-0.6,0.6-1,1.2l11.3,24.4H56h0.9
			h0.2c0,0,9.6-20.5,10.9-23.3c1.3-2.8,2.8-2.8,2.8-2.8H69.2z"/>
		<polygon points="135.3,139.8 130.5,150.1 126.4,139.8 121.1,139.8 111.5,160.2 118,160.2 122.9,149.9 126.9,160.2 132.3,160.2 
			141.9,139.8 		"/>
		<polygon points="89.6,139.8 84.8,150.1 80.7,139.8 75.4,139.8 65.8,160.2 72.3,160.2 77.2,149.9 81.2,160.2 86.6,160.2 
			96.2,139.8 		"/>
		<polygon points="166.7,139.8 158,139.8 147.9,147.2 147,147.2 150.4,139.8 143.9,139.8 134.4,160.2 140.9,160.2 144.3,152.8 
			146,152.8 149.2,160.2 156.3,160.2 152.1,150.4 		"/>
		<polygon points="203.7,139.8 198.9,150.1 194.8,139.8 189.5,139.8 179.9,160.2 186.4,160.2 191.2,149.9 195.3,160.2 200.7,160.2 
			210.3,139.8 		"/>
		<path d="M211.9,154.5l4.2-9h14.3l2.7-5.7h-16.2c-1.3,0-2.6,0.4-3.8,1.1c-1.2,0.8-2.1,1.7-2.7,2.8l-5.3,11.3
			c-0.8,1.6-0.3,2.8,0.1,3.5c0.5,0.7,1.4,1.5,3.3,1.5h15l6.1-13h-13.1l-2.7,5.7h6.6l-0.8,1.7H211.9z"/>
		<path d="M112.8,139.8L112.8,139.8L112.8,139.8L112.8,139.8L112.8,139.8l-8.2,0h0h0h0c-2.4,0-5.4,1.9-6.7,4.3h0l-9.2,16h6.5
			l2.2-3.8h7.2l-1.4,3.8h6.5l5.8-16h0C116.4,141.8,115.2,139.9,112.8,139.8 M100.6,150.8l3-5.3h4.9l-1.9,5.3H100.6z"/>
		<path d="M181.2,139.8L181.2,139.8L181.2,139.8L181.2,139.8L181.2,139.8l-8.2,0h0h0h0c-2.4,0-5.4,1.9-6.7,4.3h0l-9.2,16h6.5
			l2.2-3.8h7.2l-1.4,3.8h6.5l5.8-16h0C184.8,141.8,183.6,139.9,181.2,139.8 M169,150.8l3-5.3h4.9l-1.9,5.3H169z"/>
		<path d="M130.9,171.8h-2l1.4-3.2c0.3-0.5,0.6-1,0.9-1.3c0.8-0.9,1.7-1.3,2.7-1.3h4.6l-0.5,1.1h-3.7c-0.7,0-1.3,0.3-1.7,0.9
			c-0.1,0.2-0.2,0.5-0.2,0.5h5l-0.4,1h-5L130.9,171.8z"/>
		<path d="M143.9,166c1,0,1.4,0.2,1.6,0.8c0.1,0.3,0.1,0.7-0.1,1.1c-0.4,1-1,1.5-1.6,1.5h-0.5l0.7,2.4h-2l-0.8-2.4h-1.5l-1.1,2.4h-2
			l2.7-5.8H143.9z M144,168.2c0.1-0.1,0.2-0.3,0.2-0.5c0-0.2,0-0.6-0.9-0.6h-2.5l-0.6,1.4h3.3C143.7,168.4,143.9,168.3,144,168.2"/>
		<path d="M193.2,166c1,0,1.4,0.2,1.5,0.8c0.1,0.3,0.1,0.7-0.1,1.1c-0.4,1-1,1.5-1.6,1.5h-0.5l0.7,2.4h-2l-0.8-2.4H189l-1.1,2.4h-2
			l2.7-5.8H193.2z M193.3,168.2c0.1-0.1,0.2-0.3,0.2-0.5c0-0.2,0-0.6-0.9-0.6h-2.5l-0.6,1.4h3.3C193,168.4,193.2,168.3,193.3,168.2"
			/>
		<path d="M147.4,169.4l-0.2,0.4c-0.1,0.3-0.1,0.5,0,0.7c0.1,0.2,0.4,0.3,0.8,0.3h3.7l-0.5,1h-4.7c-1,0-1.6-0.3-1.6-1
			c0-0.3,0.1-0.6,0.2-1l0.5-1.1c0.3-0.5,0.6-1,0.9-1.3c0.8-0.9,1.7-1.3,2.7-1.3h4.6l-0.5,1.1h-3.7c-0.7,0-1.3,0.3-1.7,0.9l-0.2,0.5
			h5l-0.4,1H147.4z"/>
		<path d="M155,169.4l-0.2,0.4c-0.1,0.3-0.1,0.5,0,0.7c0.1,0.2,0.4,0.3,0.8,0.3h3.7l-0.5,1h-4.7c-1,0-1.6-0.3-1.6-1
			c0-0.3,0.1-0.6,0.2-1l0.5-1.1c0.3-0.5,0.6-1,0.9-1.3c0.8-0.9,1.7-1.3,2.7-1.3h4.6l-0.5,1.1h-3.7c-0.7,0-1.3,0.3-1.7,0.9l-0.2,0.5
			h5l-0.4,1H155z"/>
		<polygon points="167.7,171.8 165.7,171.8 167,169.3 166.3,166 168.3,166 168.6,168.1 172.1,166 173.7,166 169.2,168.9 		"/>
		<polygon points="215.2,171.8 213.2,171.8 214.5,169.3 213.8,166 215.8,166 216.1,168.1 219.6,166 221.3,166 216.7,168.9 		"/>
		<path d="M172.8,171.8L172.8,171.8c-1.1,0-1.6-0.3-1.6-1c0-0.3,0.1-0.6,0.2-1l0.5-1.1c0.3-0.5,0.6-1,0.9-1.3
			c0.8-0.9,1.7-1.3,2.6-1.3h2.3c1,0,1.4,0.4,1.4,1.3c0,0.3-0.1,0.8-0.3,1.3l-0.5,1.1c-0.2,0.4-0.4,0.7-0.7,1c-0.6,0.7-1.5,1-2.5,1h0
			H172.8z M177.6,167l-1.9,0c-0.6,0-1.3,0.8-1.8,1.6c-0.7,1.4-0.7,2-0.2,2.1l1.9,0c0.6,0,1.3-0.6,1.9-1.6
			C177.9,168.3,178.3,167,177.6,167"/>
		<path d="M184.9,169.7l1.7-3.7h1.3l-1.7,3.8c-0.2,0.4-0.4,0.7-0.7,1c-0.6,0.7-1.5,1-2.5,1h-2.4c-1,0-1.6-0.3-1.6-1
			c0-0.3,0.1-0.6,0.2-1l1.7-3.8h2l-1.7,3.8c-0.2,0.5-0.1,1,0.5,1c0.5,0,0.7,0,1.4,0C184.1,170.8,184.7,170,184.9,169.7"/>
		<path d="M202.6,167.9c0.4-0.3,0.7-0.3,0.9,0.1c0.1,0.3,0.9,2.1,0.9,2.1l1.9-4.2h1.2l-2.7,5.8h-1.4c-0.6,0-0.8-0.7-0.9-1.1
			l-0.2-0.6l-0.7,0.6c-0.4,0.3-1.2,1.1-2,1.1h-2l2.7-5.8h1.2l-1.8,4.2L202.6,167.9z"/>
		<path d="M208.5,170.2l-1.1,1.6h-2l3.8-5.8h3.6c0.4,0,0.6,0.2,0.5,0.7l-0.9,5.1h-1.3l0.3-1.6H208.5z M209.1,169.2h2.5l0.4-2.2h-1.4
			L209.1,169.2z"/>
	</g>
</g>
<g>
	<path class="st6" d="M273.9,153.3c1.4-4,5.3-7.8,9.6-8.5c3.6-0.5,7-0.6,9.6,1.3c-0.7,1.4-1.4,2.8-1.4,2.8s-1.1-0.7-1.8-0.9
		c-1.4-0.6-3.4-0.8-4.6,0.2l-0.5,0.9l-2.9,11.2c-0.1,0.4-0.1,0.8,0.2,1.2c0.7,0.7,1.9,0.3,2.8,0.4l0.3-0.3l2-7.5l8.6,0.1l0.1,0.2
		c-0.8,3.3-1.6,6.7-2.5,9.9l-0.2,0.2l-13.5-0.1c-2.1,0.1-4-0.7-5-2.4c-0.1-0.5-0.6-0.8-0.6-1.4h-0.1
		C273.2,158.4,273.2,155.5,273.9,153.3L273.9,153.3z"/>
	<path class="st6" d="M375.4,153.2c1.3,2.5,2.8,5.3,4,7.8l-0.1,0.4c-3.4,3.4-6.8,7.8-11.5,9.1c-0.4,0.1-0.6-0.3-0.7-0.6
		c0.1-2.3,2.6-3.5,3.6-5.5c0.9-1.7,1.1-3.7,2-5.4c0.8-1.8,1.4-3.7,2.4-5.4L375.4,153.2L375.4,153.2z"/>
	<path class="st6" d="M368,171.4c7.6-2.6,12.1-11.5,19.3-15.4c0.7-0.3,1.2-0.9,2-1c0.3,0.3,0.6,0.6,0.6,1.1
		c-5.1,2.9-9.7,7.6-14,11.9c-2.2,2.1-4.7,3.5-7.3,4.6C368.3,172.2,368.2,171.8,368,171.4L368,171.4z"/>
	<path class="st6" d="M373.3,143.6c2.8-1.7,5.5-3.2,8.1-4.6c-0.3,1.3-0.5,3-0.1,4.4l-0.1,0.3l-5.7,3.3l-0.4,0c-0.7-1-1.4-2-2-3.1
		L373.3,143.6L373.3,143.6z"/>
	<path class="st6" d="M375.9,148.3c1.9-0.1,3.3,0.3,4.9,0.4v0.2c-1.6,0.9-3.3,1.9-4.9,2.5C375.9,150.3,376.1,149.3,375.9,148.3
		L375.9,148.3z"/>
	<path class="st6" d="M376.3,152.7c1.9-1.1,3.8-2.2,5.8-3.1c0.5,1.4,1.3,2.7,2.5,3.8c1.2-0.4,1.4-1.8,2.4-2.3l1.8,2.9l-0.1,0.2
		c-2.8,1.8-5.7,3.6-8.3,6.1h-0.3C378.8,157.8,377.4,155.3,376.3,152.7L376.3,152.7z"/>
	<path class="st6" d="M382.1,144.6l-0.2,2.9c-1.3,0.1-2.9,0-4.5-0.1l-0.1-0.1l4.5-2.6H382.1L382.1,144.6z"/>
	<path class="st6" d="M393.1,144.4h8.9l2.2,6.6c0,0,0.1,0.1,0.1,0.2c2-1.9,5.6-6.8,5.6-6.8h4.7v0.3l-8.9,11.1c0,0-1.5,5.5-2.3,8.3
		l-0.7,0.2h-8.7l-0.1-0.2l2.1-8.4l-3.4-11C392.5,144.7,392.9,144.6,393.1,144.4L393.1,144.4z"/>
	<path class="st6" d="M416.2,144.6l0.2-0.1l15.9,0c0.2,0,0.4,0.2,0.4,0.2l-0.8,3.5l-7.2,0l-0.3,0.5l-0.8,3.8l0.2,0.1l4.3-0.1
		l-0.9,3.9l-4.7,0c0,0-0.8,2.9-1,4.3l0.2,0.1c2.2,0,4.4,0,6.7,0l0.2,0.1c-0.1,1.2-0.5,2.1-0.8,3.2l-0.4,0.2l-15.9,0.1L416.2,144.6
		L416.2,144.6z"/>
	<path class="st6" d="M305.3,145.5c3.8-2,9-1.7,12.2,0.4c2.7,2.4,3.5,6.1,2.6,9.5c-1.1,4-4.5,8.3-8.8,9.2c-4,1-8.7,0.6-11.3-2.8
		c-2.4-2.9-1.9-7.7-0.1-10.8C301,148.7,303.1,146.7,305.3,145.5L305.3,145.5z M306.6,159.9c-0.2,0.6-0.2,1.4,0.3,1.9
		c0.4,0.3,1,0.4,1.5,0.3c0.5-0.2,1.1-0.5,1.3-1.1c1.1-3.5,1.6-7.2,2.6-10.7c0-1,1-2.2-0.2-2.8c-0.8-0.2-1.8-0.1-2.4,0.5
		c-0.8,1.7-1,3.6-1.5,5.4C307.8,155.7,307.2,157.8,306.6,159.9L306.6,159.9z"/>
	<path class="st6" d="M328.6,146.2c3.7-2.4,8.9-2.8,12.6-1.1c2.9,1.4,4,4.6,4.1,7.6c-0.1,4.6-2.8,8.9-6.8,10.9l-2.6,1
		c-3.7,0.5-7.8,0.3-10.5-2.5c-2.5-2.5-2.7-6.6-1.6-9.8C324.5,149.9,326.5,147.7,328.6,146.2L328.6,146.2z M331.5,161.4
		c0.4,0.3,1,0.5,1.5,0.3c0.5-0.2,1.1-0.7,1.4-1.2l1.7-7.3c0.1-0.4,0.1-0.9,0.3-1.2c0.2-1.5,1-2.8,0.9-4.3c-0.2-0.2-0.4-0.7-0.7-0.7
		c-0.8-0.2-1.5,0-2,0.5c-1.3,3.7-1.9,7.8-2.9,11.6C331.6,159.9,331.1,160.7,331.5,161.4L331.5,161.4z"/>
	<path class="st6" d="M350.6,144.6l0.5-0.1l13.2,0c2.1,0.3,4.1,2.3,4.9,4.3c1.4,4.4-0.3,8.8-3.1,12.1c-2.1,2.1-4.6,3.4-7.7,3.4
		c-4.7,0-12.4,0-12.4,0S349.7,148.1,350.6,144.6L350.6,144.6z M355.4,161.2c0.6,0.4,1.4,0.1,2,0.1c0.6-0.2,0.9-0.7,1.2-1.2
		c0,0,3.2-11.4,2.7-12.2c-0.6-0.6-1.4-0.4-2.5-0.4c-0.1,0.2-0.1,0.4-0.2,0.6L355.4,161.2L355.4,161.2z"/>
	<path class="st6" d="M384.1,137.1c3-2.5,7.2-1.7,11.1-1.7c4.9,0.6,10.3,0.4,15.1-0.5c0.1,1.5-1,2.8-2.3,3.6
		c-3.4,1.8-7.7,1.2-11.6,1l0,0.2l1.6,0.6c0,0.5-0.6,0.8-1,1c-0.6,0.3-1.4,0.2-2,0.5c0.2,0.2,0.7,0.1,0.6,0.5
		c-1.1,1.3-3.1,1.3-4.5,0.7l-0.2,0.2c0,1.2,0,2.6-0.7,3.6c-0.5,0.1-0.8-0.4-1.2-0.5c-0.3,0.8-0.2,1.9-0.8,2.5
		c-0.5,0-0.9-0.7-1.4-0.9c-0.6,1.2-0.9,2.6-1.8,3.6c-0.9-0.1-1.4-1.2-1.8-1.9c-0.3-1.5-0.5-3.3-0.1-4.8c-0.9-1.4-1.6-3.2-0.9-4.9
		C382.6,138.8,383.3,137.8,384.1,137.1L384.1,137.1z M385.6,142.4l-1.2-0.1l0.1,0.2c0.9,0.1,0.7,1.3,1.5,1.5L385.6,142.4l0.6-2.9
		c0.4,0.2,1.1,0.4,1.6,0.1c0.4-0.7,1.4-0.6,2.1-0.6c0.6-0.1,0.6-1.3,1.4-1c0.3-0.1,0.8-0.3,0.7-0.5c-0.8,0.5-1.8-0.7-2.3,0.3
		c-0.5,0.4-1.3,0.4-1.9,0.5c-0.2,0.7-1,1.2-1.7,1.2L385.6,142.4L385.6,142.4z"/>
	<path class="st6" d="M441.1,144.4l7.9,0l0.3,0.3l2.1,19.6c0,0.1-8.9,0-8.9,0l-0.4-3.1l-6.8,0l-2,3.1l-4,0
		C429.2,164.4,439.2,147.4,441.1,144.4L441.1,144.4z M437.4,157.7l4.1,0l-0.6-6L437.4,157.7L437.4,157.7z"/>
	<path class="st6" d="M458.1,144.6l0.3-0.2l15.6,0c1.8,0.1,3.1,1.4,4,2.8c1.1,1.8,0.9,4.3-0.1,6.1c-0.8,1.4-2.2,2.8-3.6,3.6
		c0.5,2.3,1,4.6,1.5,6.9c0.1,0.3-0.1,0.5-0.4,0.5l-8.7,0l-0.3-0.2l-1.6-5.6c-0.1-0.2-0.4-0.1-0.6-0.1l-0.3,0.4l-1.4,5.3l-0.3,0.2
		l-8.9,0c-0.2-0.4,0-0.7,0.1-1.1C455,157.1,456.6,150.9,458.1,144.6L458.1,144.6z M465,154.8c0.3,0.3,1.1,0.3,1.6,0.2
		c0.5-0.2,0.8-0.7,1.1-1.1l1.2-4.9c0.3-0.5,0.1-1.1-0.3-1.5c-0.5-0.3-1.4-0.3-1.9,0L465,154.8L465,154.8z"/>
</g>
<path id="path830" d="M122.1,242.2c0.3-1.1,0.8-2,1.8-2.8c0.4-0.3,1.5-0.8,3.1-1.6c0.9-0.4,1.5-0.6,1.6-1.2c0.2-0.6-0.2-0.9-1.1-0.9
	c-1,0-1.7,0.5-1.9,1.4h-2.1c0.6-1.9,2.2-3.1,4.4-3.1c2.3,0,3.3,1,2.9,2.5c-0.3,1.1-1.1,1.8-2.6,2.5c-1.8,0.8-2.9,1.2-3.1,1.6h4.5
	l-0.5,1.7h-7C122.1,242.4,122.1,242.3,122.1,242.2 M117.6,241c1.1,0,1.8-0.5,2-1.2c0.2-0.8-0.3-1.2-1.3-1.2c-1,0-1.7,0.5-1.9,1.2
	C116.2,240.6,116.7,241,117.6,241 M119.2,237.1c2.1,0,3,1,2.6,2.7c-0.5,1.8-2.1,2.9-4.5,2.9c-2.5,0-3.4-1.5-2.7-4.2
	c0.8-2.9,2.6-4.3,5.2-4.3c1.9,0,2.9,1,2.6,2.5h-2.1c0.1-0.6-0.3-0.9-1.1-0.9c-1.1,0-1.9,0.6-2.2,1.8c0,0,0,0.1,0,0.1
	C117.6,237.3,118.3,237.1,119.2,237.1 M109.8,238.2c1,0,1.7-0.5,1.9-1.2c0.2-0.8-0.2-1.2-1.2-1.2c-1.1,0-1.8,0.5-2,1.2
	C108.3,237.7,108.8,238.2,109.8,238.2 M107.9,240.2c-0.1,0.6,0.3,0.8,1,0.8c1.1,0,1.9-0.6,2.2-1.8c0,0,0-0.1,0-0.1
	c-0.7,0.4-1.4,0.6-2.2,0.6c-2.1,0-3-1.1-2.6-2.7c0.5-1.8,2.1-2.9,4.5-2.9c2.5,0,3.4,1.4,2.7,4.2c-0.8,2.9-2.6,4.4-5.2,4.4
	c-1.9,0-2.9-1-2.6-2.5L107.9,240.2L107.9,240.2z M102.4,237h-2.2l0.4-1.4h0.2c1.3,0,2.1-0.4,2.6-1.4h1.7l-2.2,8.1h-2L102.4,237
	L102.4,237z M87.5,234.1h7.4l-0.5,1.7h-5.3l-0.4,1.4h4.7l-0.5,1.7h-4.7l-0.5,1.8h5.3l-0.5,1.7h-7.4L87.5,234.1z M78.9,242.7
	c-3.1,0-4.5-1.7-3.8-4.4c0.7-2.6,3.1-4.4,6.2-4.4c2.8,0,4.2,1.4,3.9,3.3h-2.3c0-1-0.7-1.5-2.1-1.5c-1.7,0-3,1-3.4,2.7
	c-0.4,1.7,0.3,2.7,2,2.7c1.5,0,2.6-0.6,3-1.7h2.3C83.9,241.3,81.7,242.7,78.9,242.7 M66.1,234.1h2.6l2.6,5.9l1.6-5.9h2l-2.2,8.3H70
	l-2.6-5.9l-1.6,5.9h-2L66.1,234.1L66.1,234.1z M62.1,234.1h2.1l-2.2,8.3h-2.1L62.1,234.1z M52.4,239.6
	C52.4,239.6,52.4,239.6,52.4,239.6c-0.3,1,0.4,1.5,2,1.5c1.2,0,2-0.4,2.2-1c0.2-0.6-0.3-0.8-1.4-0.9l-1.4-0.2
	c-2.1-0.2-2.9-0.9-2.5-2.3c0.4-1.6,2.2-2.8,4.8-2.8c2.7,0,3.9,1.1,3.4,2.7c0,0,0,0,0,0.1h-2.1c0.1-0.8-0.4-1.2-1.7-1.2
	c-1.2,0-1.9,0.4-2.1,1c-0.2,0.6,0.3,0.7,1.5,0.8l1.5,0.2c2,0.2,2.8,1,2.5,2.5c-0.5,1.8-2.3,2.8-5.2,2.8c-2.8,0-4-1.1-3.5-2.9
	c0-0.1,0-0.1,0-0.2H52.4L52.4,239.6z"/>
<path id="path834" class="st0" d="M54.7,199h8.8l-3.9,10.8L72.8,199h11.7l-14.3,10.7l4.3,17.8H63.7L62,215.9l-6.3,4.8l-2.5,6.9h-8.8
	L54.7,199L54.7,199z M182.1,216.7l6.8-10.2l-0.6,10.2H182.1z M187.6,227.5h8.9l0-28.5h-9.7l-21.1,28.5h9l3.1-4.7h10L187.6,227.5
	L187.6,227.5z M158.6,205.5c2.3,0,3.7,0.6,4.3,1.7c0.6,1.1,0.3,3.2-0.8,6.2c-0.8,2.3-1.7,3.9-2.5,5c-0.8,1-1.7,1.7-2.6,2.1
	c-0.9,0.4-2.3,0.6-4.2,0.6h-2.2l5.7-15.6L158.6,205.5L158.6,205.5z M139.5,227.5h13.1c1.6,0,3.4-0.3,5.5-0.8
	c1.5-0.4,3.1-1.1,4.8-2.3c1.6-1.1,3.1-2.5,4.4-4.2c1.3-1.7,2.5-4,3.6-7.1c0.7-1.9,1.1-3.8,1.3-5.5c0.2-1.7,0-3.3-0.6-4.6
	c-0.6-1.3-1.5-2.3-2.8-3c-1.3-0.7-3.3-1-5.9-1h-13.1L139.5,227.5L139.5,227.5z M116.7,199h8.2l5,15.8l5.7-15.8h8.3l-10.4,28.5h-8.3
	l-5-15.7l-5.7,15.7h-8.3L116.7,199L116.7,199z M87.8,199h23.7l-2.2,6.1H94.4l-1.6,4.5h13.8l-2.1,5.8H90.7l-2,5.6h15.2l-2.3,6.5H77.5
	L87.8,199L87.8,199z"/>
<path id="path794" d="M151.2,231.1l-0.7,3.5h-3.8l-2.1,10.1h-4.2l2.1-10.1h-3.8l0.7-3.5H151.2 M156.9,231.1l-2.8,13.6h-4.2l2.8-13.6
	H156.9 M162,237.1h2.2c1.4,0,2-0.7,2-1.5c0-0.5-0.3-1.2-1.4-1.2h-2.3L162,237.1 M166,231.1c2.5,0,4.4,0.7,4.4,3.6
	c0,2-1.2,3.4-3.2,3.8v0c1.2,0.3,1.4,1.5,1.4,2.8c0,1.3-0.2,2.7,0.2,3.5h-4c-0.2-0.3-0.2-0.7-0.2-1.3c0-0.7,0.2-1.5,0.2-2.2
	c0-0.7-0.5-1.2-1.7-1.2h-1.8l-1,4.8h-4.1l2.8-13.6H166 M184.5,231.1l-0.7,3.5h-7.1l-0.4,1.7h6.6l-0.7,3.2h-6.6l-0.4,1.7h7.2
	l-0.7,3.5h-11.4l2.8-13.6L184.5,231.1 M191.1,230.8c2.9,0,5.5,1.1,5.4,4.4h-3.9c0-0.6-0.2-0.9-0.5-1.1c-0.3-0.2-0.7-0.3-1.2-0.3
	c-0.7,0-1.6,0.2-1.6,1.1c0,1,2,1.1,3.4,1.6c2.4,0.8,3.2,2.1,3.2,3.8c0,3.3-3.2,4.8-6.2,4.8c-3.1,0-6-1.4-5.8-4.9h4.1
	c0,0.7,0.2,1.2,0.5,1.5c0.4,0.3,0.9,0.3,1.5,0.3c0.8,0,1.8-0.4,1.8-1.3c0-1-1.4-1.1-3.3-1.8c-1.7-0.6-3.3-1.4-3.3-3.7
	C185.4,232.2,188.4,230.8,191.1,230.8"/>
<g>
	<polygon class="st0" points="272.2,237.4 286.9,222.8 272.1,208 274.9,208 289.7,222.8 275,237.4 	"/>
	<polygon class="st0" points="276.7,237.4 291.4,222.8 276.6,208 279.4,208 294.2,222.8 279.5,237.4 	"/>
	<polygon class="st0" points="281.2,237.4 295.9,222.8 281.1,208 283.9,208 298.7,222.8 284.1,237.4 	"/>
	<polygon class="st0" points="285.8,237.4 300.4,222.8 285.6,208 288.5,208 303.2,222.8 288.6,237.4 	"/>
	<polygon class="st0" points="319.7,208 306.3,221.4 305.5,220.5 318,208 315.2,208 304.1,219.1 303.2,218.2 313.5,208 310.6,208 
		301.8,216.8 301,216 308.9,208 306.1,208 299.6,214.6 298.7,213.7 304.4,208 301.6,208 297.3,212.3 293,208 290.2,208 304.9,222.8 
		290.3,237.4 293.1,237.4 307.7,222.8 322.5,208 	"/>
	<polygon points="339.6,211.7 335.2,211.7 330.7,221.1 326.3,211.7 321.8,211.7 328.7,225.7 328.7,234 332.7,234 332.7,225.7 	"/>
	<path d="M347.9,211.5c6.3,0,11.4,5.1,11.4,11.4c0,6.3-5.1,11.4-11.4,11.4c-6.3,0-11.4-5.1-11.4-11.4
		C336.6,216.6,341.7,211.5,347.9,211.5L347.9,211.5z M340.6,222.8c0,4.1,3.3,7.4,7.4,7.4c4.1,0,7.4-3.3,7.4-7.4
		c0-4.1-3.3-7.4-7.4-7.4C343.9,215.5,340.6,218.8,340.6,222.8z"/>
	<path d="M383.6,211.5c6.3,0,11.4,5.1,11.4,11.4c0,6.3-5.1,11.4-11.4,11.4c-6.3,0-11.4-5.1-11.4-11.4
		C372.3,216.6,377.3,211.5,383.6,211.5L383.6,211.5z M376.3,222.8c0,4.1,3.3,7.4,7.4,7.4c4.1,0,7.4-3.3,7.4-7.4
		c0-4.1-3.3-7.4-7.4-7.4C379.6,215.5,376.3,218.8,376.3,222.8z"/>
	<polygon points="376,211.5 371,211.5 364.3,221 364.3,211.5 360.1,211.5 360.1,233.8 364.3,233.8 364.3,224.6 370.7,233.8 
		375.7,233.8 367.5,222.9 	"/>
	<polygon points="407.7,211.7 407.7,221.1 400.1,221.1 400.1,211.7 395.8,211.7 395.8,234 400.1,234 400.1,225.1 407.7,225.1 
		407.7,234 412.1,234 412.1,211.7 	"/>
	<path d="M429,234h4.3l-8.3-22.3h-0.4h-3.4H421l-8.3,22.3h4.3l2-5.4h7.9L429,234L429,234z M420.4,225l2.6-7l2.6,7H420.4z"/>
	<path d="M474.4,234h4.3l-8.3-22.3h-0.4h-3.4h-0.2l-8.3,22.3h4.3l2-5.4h7.9L474.4,234L474.4,234z M465.9,225l2.6-7l2.6,7H465.9z"/>
	<polygon points="455.9,211.7 453,211.7 451.8,211.7 445.6,228.3 439.3,211.7 438.1,211.7 435.2,211.7 434.1,211.7 434.1,234 
		438.1,234 438.1,219.4 443.7,234 443.9,234 447.3,234 447.5,234 453,219.4 453,234 457.1,234 457.1,211.7 	"/>
</g>
<g>
	<g>
		<polygon points="127,279.1 121.8,285.3 121.8,285.3 121.6,285.6 135.2,285.6 135.3,285.6 140.7,279.1 140.3,279.1 		"/>
		<polygon points="106.3,275.5 91,275.5 89.1,277.7 89.1,277.7 88.9,278 108.7,278 		"/>
		<path d="M236.8,279.1h-13.1c0,0.2-0.1,0.5-0.3,0.8l-1.2,1.6c-0.8,1.1-3.1,1.9-5.2,1.8c-2.1-0.1-3.1-1-2.3-2.1l1.2-1.6
			c0.1-0.2,0.3-0.3,0.5-0.5h-0.1c0,0,0,0,0,0H203c-1.3,1.4-2.3,3-1.6,4.3c0,0,0,0,0,0c0.1,0.1,0.1,0.2,0.2,0.3c0,0,0,0,0,0
			c1.3,1.7,10.7,1.8,14.8,1.8c4.2,0,14.3-0.6,16.7-2.1C235,282.3,236.6,280.7,236.8,279.1C236.8,279.1,236.8,279.1,236.8,279.1
			C236.8,279.1,236.8,279.1,236.8,279.1z"/>
		<path d="M236.7,277.9c-0.7-2.1-5.6-2.4-15.7-2.4c-9,0-14.6,0.9-16.7,2.5L236.7,277.9C236.7,277.9,236.7,277.9,236.7,277.9z"/>
		<polygon points="123,279.1 109.8,279.1 87.9,279.1 82.7,285.3 82.7,285.3 82.5,285.6 96.2,285.6 100.3,280.7 104.4,285.6 
			104.3,285.6 104.4,285.6 118,285.6 123.4,279.1 		"/>
		<polygon points="157.9,279.1 153.2,279.1 148,285.3 148,285.3 147.8,285.6 161.5,285.6 165.3,281.1 158.5,279.1 		"/>
		<polygon points="184.7,279.1 184.1,279.1 179.3,279.1 173.9,285.6 173.9,285.6 187.6,285.6 191.5,281.1 184.7,279.1 		"/>
		<polygon points="124.4,278 126.5,275.5 126.1,275.5 112.8,275.5 110.9,277.7 110.9,277.7 110.7,278 124.4,278 		"/>
		<polygon points="143.3,275.5 130,275.5 127.9,278 128,278 141.6,278 141.6,278 143.7,275.5 143.7,275.5 		"/>
		<polygon points="202,278 202.4,277.6 204.1,275.5 204.1,275.5 203.7,275.5 147.3,275.5 145.2,278 145.2,278 202,278 		"/>
		<polygon points="121.6,285.6 135.2,285.6 135.3,285.6 140.7,279.1 127,279.1 		"/>
		<polygon points="127.9,278 141.6,278 143.7,275.5 130,275.5 		"/>
		<polygon points="109.8,279.1 87.9,279.1 82.5,285.6 96.2,285.6 100.3,280.7 104.4,285.6 104.3,285.6 104.4,285.6 118,285.6 
			123.4,279.1 		"/>
		<polygon points="106.3,275.5 91,275.5 88.9,278 108.7,278 		"/>
		<polygon points="126.5,275.5 112.8,275.5 110.7,278 124.4,278 		"/>
		<polygon points="204.1,275.5 147.3,275.5 145.2,278 179.9,278 193.6,278 202.1,278 		"/>
		<polygon points="179.3,279.1 173.9,285.6 187.6,285.6 191.5,281.1 184.7,279.1 		"/>
		<path d="M223.7,279.1c0,0.2-0.1,0.5-0.3,0.8l-1.2,1.6c-0.8,1.1-3.1,1.9-5.2,1.8c-2.1-0.1-3.2-1-2.4-2.1l1.2-1.6
			c0.1-0.2,0.3-0.3,0.5-0.5H203c-1.4,1.5-2.5,3.3-1.4,4.6c1.3,1.7,10.7,1.8,14.8,1.8c4.2,0,14.3-0.6,16.7-2.1
			c1.9-1.2,3.5-2.7,3.7-4.4H223.7z"/>
		<path d="M236.7,278C236.7,277.9,236.7,277.9,236.7,278c-0.8-2.1-5.6-2.5-15.8-2.5c-9,0-14.6,0.9-16.7,2.5H236.7z"/>
		<polygon points="153.2,279.1 147.8,285.6 161.5,285.6 165.3,281.1 158.5,279.1 		"/>
		<polygon points="82.7,285.3 82.5,285.6 96.2,285.6 100.3,280.7 104.4,285.6 118,285.6 123.4,279.1 123,279.1 117.8,285.3 
			104.6,285.3 100.3,280.2 96,285.3 		"/>
		<polygon points="108.7,278 88.9,278 89.1,277.7 108.4,277.7 		"/>
		<polygon points="121.8,285.3 135,285.3 140.3,279.1 140.7,279.1 135.2,285.6 121.6,285.6 		"/>
		<polygon points="148,285.3 161.3,285.3 164.8,281.2 157.9,279.1 158.5,279.1 165.3,281.1 161.5,285.6 147.8,285.6 		"/>
		<polygon points="174.2,285.3 187.4,285.3 191,281.2 184.1,279.1 184.7,279.1 191.5,281.1 187.6,285.6 173.9,285.6 		"/>
		<path d="M233.1,283.2c-2.4,1.4-12.5,2-16.7,2c-4.2,0-13.5-0.1-14.8-1.7c-0.3-0.3-0.4-0.6-0.4-1c0,0.4,0.1,0.9,0.4,1.2
			c1.3,1.7,10.7,1.8,14.8,1.8c4.2,0,14.3-0.6,16.7-2.1c1.9-1.2,3.5-2.7,3.7-4.4C236.6,280.7,235,282.1,233.1,283.2z"/>
		<polygon points="204.7,277.7 236.6,277.7 236.7,278 204.3,278 		"/>
		<polygon points="126.5,275.5 126.1,275.5 124.2,277.7 110.9,277.7 110.7,278 124.4,278 124.4,278 124.4,278 		"/>
		<polygon points="143.7,275.5 143.3,275.5 141.5,277.7 128.2,277.7 128,278 141.6,278 141.6,278 141.6,278 		"/>
		<polygon points="204.1,275.5 203.7,275.5 201.9,277.7 188.6,277.7 145.4,277.7 145.2,278 202,278 202,278 202,278 		"/>
		<path d="M215.5,279.6l-1.2,1.6c-0.8,1.1,0.3,2,2.4,2.1c0.1,0,0.2,0,0.3,0c-2.1-0.1-3.1-1-2.3-2.1l1.2-1.6c0.1-0.2,0.3-0.3,0.5-0.5
			h-0.4C215.8,279.3,215.6,279.4,215.5,279.6z"/>
		<path d="M239,272.7c0.7,0,1.3,0.6,1.3,1.4c0,0.8-0.6,1.4-1.3,1.4c-0.7,0-1.3-0.6-1.3-1.4C237.6,273.3,238.2,272.7,239,272.7
			L239,272.7z M239,272.9c-0.6,0-1.1,0.5-1.1,1.1c0,0.6,0.5,1.1,1.1,1.1c0.6,0,1.1-0.5,1.1-1.1C240.1,273.5,239.6,272.9,239,272.9
			L239,272.9z M238.7,274.9h-0.2v-1.5c0.1,0,0.2,0,0.4,0c0.2,0,0.4,0,0.5,0.1c0.1,0.1,0.1,0.2,0.1,0.3c0,0.2-0.1,0.3-0.3,0.4v0
			c0.1,0,0.2,0.1,0.3,0.4c0,0.2,0.1,0.3,0.1,0.4h-0.3c0-0.1-0.1-0.2-0.1-0.4c0-0.2-0.1-0.3-0.3-0.3h-0.2V274.9z M238.7,274h0.2
			c0.2,0,0.4-0.1,0.4-0.3c0-0.1-0.1-0.3-0.4-0.3c-0.1,0-0.1,0-0.2,0V274z"/>
	</g>
	<g>
		<g>
			<path d="M27.6,272.6c-1.4,0-7.4,0-7.7,0c-0.2,0.2-2.7,3-3.5,3.9c1.4,0,7.4,0,7.7,0C24.3,276.3,26.8,273.6,27.6,272.6z"/>
			<polygon points="32,280.5 22,292.1 45.8,292.1 49.4,287.9 38.3,287.9 			"/>
			<polygon points="43.4,280 53.3,268.5 31.2,268.5 27.6,272.6 37,272.6 			"/>
		</g>
		<g>
			<path d="M83.9,270.9H85v0.2h-0.4v1.3h-0.2v-1.3h-0.4V270.9z"/>
			<path d="M85.2,270.9h0.3l0.3,1.2l0.3-1.2h0.3v1.5h-0.2v-1.2l-0.4,1.2h-0.2l-0.3-1.2v1.2h-0.2V270.9z"/>
		</g>
		<path class="st0" d="M50.4,276.6l7,2.4c0,0-7,7.8-8,8.9c1.4,0,7.7,0,7.7,0c5.8,0,6.6-0.8,10.5-5.4c0,0,1.4-1.6,1.4-1.5
			c0,0,3-3.4,3.8-4.4C71.2,276.6,50.4,276.6,50.4,276.6z"/>
		<defs>
			<filter id="Adobe_OpacityMaskFilter" filterUnits="userSpaceOnUse" x="49.2" y="276.2" width="23.3" height="11.4">
				<feColorMatrix  type="matrix" values="1 0 0 0 0  0 1 0 0 0  0 0 1 0 0  0 0 0 1 0"/>
			</filter>
		</defs>
		<mask maskUnits="userSpaceOnUse" x="49.2" y="276.2" width="23.3" height="11.4" id="SVGID_1_">
			<g class="st7">
				<linearGradient id="SVGID_2_" gradientUnits="userSpaceOnUse" x1="64.3964" y1="287.6345" x2="61.5881" y2="283.0261">
					<stop  offset="0" style="stop-color:#FFFFFF"/>
					<stop  offset="1" style="stop-color:#000000"/>
				</linearGradient>
				<path class="st8" d="M50.3,276.2l7,2.4c0,0-7,7.8-8,8.9c1.4,0,7.7,0,7.7,0c5.8,0,6.6-0.8,10.5-5.4c0,0,1.4-1.6,1.4-1.5
					c0,0,3-3.4,3.8-4.4C71,276.2,50.3,276.2,50.3,276.2z"/>
			</g>
		</mask>
		<path class="st9" d="M50.3,276.2l7,2.4c0,0-7,7.8-8,8.9c1.4,0,7.7,0,7.7,0c5.8,0,6.6-0.8,10.5-5.4c0,0,1.4-1.6,1.4-1.5
			c0,0,3-3.4,3.8-4.4C71,276.2,50.3,276.2,50.3,276.2z"/>
		<path class="st0" d="M76.2,272.6c-0.2,0.2-2.7,3-3.5,3.9c1.4,0,7.4,0,7.7,0c0.2-0.2,2.7-3,3.5-3.9
			C82.5,272.6,76.5,272.6,76.2,272.6z"/>
		<defs>
			<filter id="Adobe_OpacityMaskFilter_1_" filterUnits="userSpaceOnUse" x="72.5" y="272.4" width="11.3" height="3.9">
				<feColorMatrix  type="matrix" values="1 0 0 0 0  0 1 0 0 0  0 0 1 0 0  0 0 0 1 0"/>
			</filter>
		</defs>
		<mask maskUnits="userSpaceOnUse" x="72.5" y="272.4" width="11.3" height="3.9" id="SVGID_3_">
			<g class="st10">
				<linearGradient id="SVGID_4_" gradientUnits="userSpaceOnUse" x1="79.5812" y1="278.2979" x2="78.3032" y2="274.7677">
					<stop  offset="0" style="stop-color:#FFFFFF"/>
					<stop  offset="1" style="stop-color:#000000"/>
				</linearGradient>
				<path class="st11" d="M76,272.4c-0.2,0.2-2.7,3-3.5,3.9c1.4,0,7.4,0,7.7,0c0.2-0.2,2.7-3,3.5-3.9
					C82.4,272.4,76.4,272.4,76,272.4z"/>
			</g>
		</mask>
		<path class="st12" d="M76,272.4c-0.2,0.2-2.7,3-3.5,3.9c1.4,0,7.4,0,7.7,0c0.2-0.2,2.7-3,3.5-3.9C82.4,272.4,76.4,272.4,76,272.4z
			"/>
		<g>
			<g>
				<polygon points="32,280.5 22.3,291.8 45.6,291.8 49,287.9 38.3,287.9 				"/>
				<polygon points="43.4,279.6 53,268.5 31.2,268.5 27.8,272.4 37.2,272.4 				"/>
			</g>
			<path d="M27.3,272.6c-1.4,0-7.1,0-7.4,0c-0.2,0.2-2.4,2.7-3.2,3.6c1.4,0,7.1,0,7.4,0C24.2,276,26.5,273.6,27.3,272.6z"/>
		</g>
		<polygon class="st13" points="30.9,268.8 53,268.8 53.3,268.5 31.2,268.5 		"/>
		<defs>
			<filter id="Adobe_OpacityMaskFilter_2_" filterUnits="userSpaceOnUse" x="50.4" y="276.6" width="22.2" height="0.2">
				<feColorMatrix  type="matrix" values="1 0 0 0 0  0 1 0 0 0  0 0 1 0 0  0 0 0 1 0"/>
			</filter>
		</defs>
		<mask maskUnits="userSpaceOnUse" x="50.4" y="276.6" width="22.2" height="0.2" id="SVGID_5_">
			<g class="st14">
				<linearGradient id="SVGID_6_" gradientUnits="userSpaceOnUse" x1="80.6709" y1="276.693" x2="52.2596" y2="276.693">
					<stop  offset="0" style="stop-color:#FFFFFF"/>
					<stop  offset="1" style="stop-color:#000000"/>
				</linearGradient>
				<polygon class="st15" points="51.1,276.8 72.4,276.8 72.6,276.6 50.4,276.6 				"/>
			</g>
		</mask>
		<polygon class="st16" points="51.1,276.8 72.4,276.8 72.6,276.6 50.4,276.6 		"/>
		<defs>
			<filter id="Adobe_OpacityMaskFilter_3_" filterUnits="userSpaceOnUse" x="72.7" y="272.7" width="3.8" height="3.9">
				<feColorMatrix  type="matrix" values="1 0 0 0 0  0 1 0 0 0  0 0 1 0 0  0 0 0 1 0"/>
			</filter>
		</defs>
		<mask maskUnits="userSpaceOnUse" x="72.7" y="272.7" width="3.8" height="3.9" id="SVGID_7_">
			<g class="st17">
				<linearGradient id="SVGID_8_" gradientUnits="userSpaceOnUse" x1="71.9356" y1="277.8515" x2="74.96" y2="274.1199">
					<stop  offset="0" style="stop-color:#FFFFFF"/>
					<stop  offset="1" style="stop-color:#000000"/>
				</linearGradient>
				<polygon class="st18" points="72.7,276.5 73,276.5 76.5,272.7 76.2,272.7 				"/>
			</g>
		</mask>
		<polygon class="st19" points="72.7,276.5 73,276.5 76.5,272.7 76.2,272.7 		"/>
		<defs>
			<filter id="Adobe_OpacityMaskFilter_4_" filterUnits="userSpaceOnUse" x="73" y="276.3" width="6.2" height="0.2">
				<feColorMatrix  type="matrix" values="1 0 0 0 0  0 1 0 0 0  0 0 1 0 0  0 0 0 1 0"/>
			</filter>
		</defs>
		<mask maskUnits="userSpaceOnUse" x="73" y="276.3" width="6.2" height="0.2" id="SVGID_9_">
			<g class="st20">
				<linearGradient id="SVGID_10_" gradientUnits="userSpaceOnUse" x1="69.9562" y1="276.4151" x2="76.969" y2="276.4151">
					<stop  offset="0" style="stop-color:#FFFFFF"/>
					<stop  offset="1" style="stop-color:#000000"/>
				</linearGradient>
				<polygon class="st21" points="78.9,276.5 73,276.5 73.2,276.3 79.2,276.3 				"/>
			</g>
		</mask>
		<polygon class="st22" points="79,276.5 73,276.5 73.2,276.3 79.2,276.3 		"/>
	</g>
	<g>
		<path d="M87.6,294.3h-3.7c-0.3,0-0.6,0-0.8-0.1c-0.2-0.1-0.3-0.1-0.4-0.3c-0.1-0.1-0.1-0.3-0.1-0.4c0-0.2,0.1-0.4,0.2-0.6l1.4-3.4
			h1.4l-1.2,2.9c-0.1,0.2-0.1,0.4-0.1,0.6c0.1,0.1,0.3,0.2,0.6,0.2H88l-0.1,0.4L87.6,294.3z"/>
		<path d="M93.7,294.3h-3.7c-0.3,0-0.6,0-0.8-0.1c-0.2-0.1-0.3-0.1-0.4-0.3c-0.1-0.1-0.1-0.3-0.1-0.4c0-0.2,0.1-0.4,0.2-0.6l1.4-3.4
			h1.4l-1.2,2.9c-0.1,0.2-0.1,0.4-0.1,0.6c0.1,0.1,0.3,0.2,0.6,0.2h3.1l-0.1,0.4L93.7,294.3z"/>
		<path d="M98.6,292.4h-2.2l-0.7,1.8h-1.4l1.4-3.4c0.1-0.2,0.2-0.4,0.3-0.6c0.1-0.2,0.3-0.3,0.5-0.4c0.2-0.1,0.4-0.2,0.6-0.3
			c0.2-0.1,0.5-0.1,0.8-0.1h2.1c0.3,0,0.6,0,0.8,0.1c0.2,0.1,0.3,0.1,0.4,0.3c0.1,0.1,0.1,0.3,0.1,0.4c0,0.2-0.1,0.4-0.2,0.6
			l-1.4,3.4h-1.4l0.7-1.8H98.6z M98.7,291.4h0.7c0-0.1,0.1-0.2,0.1-0.3c0-0.1,0-0.2-0.1-0.2c0-0.1-0.1-0.1-0.2-0.1
			c-0.1,0-0.2,0-0.4,0h-0.8c-0.3,0-0.6,0.1-0.8,0.2c-0.2,0.1-0.3,0.3-0.4,0.5H98.7z"/>
		<path d="M102.9,291.6l-1.1,2.7h-1.4l1.9-4.7h1.4l1.5,2.6l1.1-2.6h1.4l-1.9,4.7h-1.4L102.9,291.6z"/>
		<path d="M107.9,290.6l0.4-1.1h5.4l-0.4,1.1h-2l-1.5,3.7h-1.4l1.5-3.7H107.9z"/>
		<path d="M116.8,292.4h-2.2l-0.7,1.8h-1.4l1.4-3.4c0.1-0.2,0.2-0.4,0.3-0.6c0.1-0.2,0.3-0.3,0.5-0.4c0.2-0.1,0.4-0.2,0.6-0.3
			c0.2-0.1,0.5-0.1,0.8-0.1h2.1c0.3,0,0.6,0,0.8,0.1c0.2,0.1,0.3,0.1,0.4,0.3c0.1,0.1,0.1,0.3,0.1,0.4c0,0.2-0.1,0.4-0.2,0.6
			l-1.4,3.4h-1.4l0.7-1.8H116.8z M116.9,291.4h0.7c0-0.1,0.1-0.2,0.1-0.3c0-0.1,0-0.2,0-0.2c0-0.1-0.1-0.1-0.2-0.1
			c-0.1,0-0.2,0-0.4,0h-0.8c-0.3,0-0.6,0.1-0.8,0.2c-0.2,0.1-0.3,0.3-0.4,0.5H116.9z"/>
		<path d="M124.6,293.4c-0.1,0.2-0.3,0.4-0.6,0.6c-0.3,0.2-0.6,0.3-0.9,0.3h-4.5l0.4-1.1h3.7c0.1,0,0.2,0,0.2-0.1c0,0,0,0,0,0
			c0-0.1,0-0.1,0-0.1l-2.7-1.2c-0.3-0.1-0.4-0.4-0.3-0.8c0-0.1,0.1-0.2,0.1-0.2c0-0.1,0.1-0.1,0.1-0.2c0,0,0.1-0.1,0.1-0.2
			c0-0.1,0.1-0.1,0.1-0.2c0.1-0.2,0.3-0.3,0.7-0.4c0.3-0.1,0.7-0.2,1.1-0.2h4l-0.4,1.1h-4c-0.1,0-0.2,0-0.2,0.1c0,0.1,0,0.1,0,0.1
			l3,1.3c0.2,0.1,0.3,0.3,0.3,0.5c0,0.2,0,0.4-0.1,0.5L124.6,293.4C124.6,293.4,124.6,293.4,124.6,293.4z"/>
		<path d="M128.7,294.3l1.9-4.7h3.7c0.3,0,0.6,0,0.8,0.1c0.2,0.1,0.3,0.1,0.4,0.3c0.1,0.1,0.1,0.3,0.1,0.4c0,0.2-0.1,0.4-0.2,0.6
			l-0.8,2c-0.1,0.2-0.2,0.4-0.3,0.6c-0.1,0.2-0.3,0.3-0.5,0.4c-0.2,0.1-0.4,0.2-0.6,0.3c-0.2,0.1-0.5,0.1-0.8,0.1H128.7z
			 M131.6,290.6l-1,2.6h1.7c0.3,0,0.6-0.1,0.8-0.2c0.2-0.1,0.3-0.3,0.4-0.6l0.4-1.1c0.1-0.2,0.1-0.4,0-0.6c-0.1-0.1-0.3-0.2-0.6-0.2
			H131.6z"/>
		<path d="M137.4,292.4H137c-0.1,0.3-0.1,0.4,0,0.6c0.1,0.1,0.3,0.2,0.6,0.2h3.1l-0.4,1.1h-3.7c-0.3,0-0.6,0-0.8-0.1
			c-0.2-0.1-0.3-0.1-0.4-0.3c-0.1-0.1-0.1-0.3-0.1-0.4c0-0.2,0.1-0.4,0.2-0.6l0.8-2c0.1-0.2,0.2-0.4,0.3-0.6
			c0.1-0.2,0.3-0.3,0.5-0.4c0.2-0.1,0.4-0.2,0.6-0.3c0.2-0.1,0.5-0.1,0.8-0.1h3.8l-0.4,1.1h-3.1c-0.3,0-0.6,0.1-0.8,0.2
			c-0.2,0.1-0.3,0.3-0.4,0.5h4l-0.4,1.1H137.4z"/>
		<path d="M147.2,291.6l-1.1,2.7h-1.4l1.9-4.7h1.4l1.5,2.6l1.1-2.6h1.4l-1.9,4.7h-1.4L147.2,291.6z"/>
		<path d="M156,293.9c-0.3,0.2-0.8,0.4-1.4,0.4h-2.1c-0.5,0-0.9-0.1-1.1-0.4c-0.2-0.2-0.2-0.6,0-1l1.4-3.4h1.4l-1.2,2.9
			c-0.1,0.2-0.1,0.4-0.1,0.6c0.1,0.1,0.3,0.2,0.6,0.2h0.8c0.4,0,0.6-0.1,0.8-0.2c0.2-0.1,0.3-0.3,0.4-0.6l1.2-2.9h1.4l-1.4,3.4
			C156.6,293.4,156.3,293.7,156,293.9z"/>
		<path d="M159.4,292.4H159c-0.1,0.3-0.1,0.4,0,0.6c0.1,0.1,0.3,0.2,0.6,0.2h3.1l-0.4,1.1h-3.7c-0.3,0-0.6,0-0.8-0.1
			c-0.2-0.1-0.3-0.1-0.4-0.3c-0.1-0.1-0.1-0.3-0.1-0.4c0-0.2,0.1-0.4,0.2-0.6l0.8-2c0.1-0.2,0.2-0.4,0.3-0.6
			c0.1-0.2,0.3-0.3,0.5-0.4c0.2-0.1,0.4-0.2,0.6-0.3c0.2-0.1,0.5-0.1,0.8-0.1h3.7l-0.4,1.1h-3.1c-0.3,0-0.6,0.1-0.8,0.2
			c-0.2,0.1-0.3,0.3-0.4,0.5h4l-0.4,1.1H159.4z"/>
		<path d="M170.2,289.6c-1.5,2.2-2.2,3.3-2.3,3.4c-0.2,0.3-0.5,0.6-0.9,0.9c-0.4,0.3-0.7,0.5-1,0.5h-0.8c-0.3,0-0.5-0.2-0.6-0.5
			c-0.2-0.3-0.2-0.6-0.2-0.8c0-0.1,0-0.4,0.1-0.9c0.1-0.6,0.2-1.4,0.3-2.5h1.4l-0.4,2.9c0,0.1,0,0.2,0,0.3c0,0.1,0,0.1,0.1,0.2
			c0,0,0.1,0.1,0.1,0.1c0,0,0.1,0,0.1,0c0.1,0,0.2-0.1,0.3-0.1c0.1-0.1,0.3-0.3,0.5-0.5l1.9-2.9H170.2z"/>
		<path d="M173.3,292.4h-2.2l-0.7,1.8h-1.4l1.4-3.4c0.1-0.2,0.2-0.4,0.3-0.6c0.1-0.2,0.3-0.3,0.5-0.4c0.2-0.1,0.4-0.2,0.6-0.3
			c0.2-0.1,0.5-0.1,0.8-0.1h2.1c0.3,0,0.6,0,0.8,0.1c0.2,0.1,0.3,0.1,0.4,0.3c0.1,0.1,0.1,0.3,0.1,0.4c0,0.2-0.1,0.4-0.2,0.6
			l-1.4,3.4h-1.4l0.7-1.8H173.3z M173.4,291.4h0.7c0-0.1,0.1-0.2,0.1-0.3c0-0.1,0-0.2,0-0.2c0-0.1-0.1-0.1-0.2-0.1
			c-0.1,0-0.2,0-0.4,0h-0.8c-0.3,0-0.6,0.1-0.8,0.2c-0.2,0.1-0.3,0.3-0.4,0.5H173.4z"/>
		<path d="M184.3,294.3h-3.7c-0.3,0-0.6,0-0.8-0.1c-0.2-0.1-0.3-0.1-0.4-0.3c-0.1-0.1-0.1-0.3-0.1-0.4c0-0.2,0.1-0.4,0.2-0.6l0.8-2
			c0.1-0.2,0.2-0.4,0.3-0.6c0.1-0.2,0.3-0.3,0.5-0.4c0.2-0.1,0.4-0.2,0.6-0.3c0.2-0.1,0.5-0.1,0.8-0.1h3.7l-0.4,1.1h-3.1
			c-0.3,0-0.6,0.1-0.8,0.2c-0.2,0.1-0.3,0.3-0.4,0.6l-0.4,1.1c-0.1,0.2-0.1,0.4,0,0.6c0.1,0.1,0.3,0.2,0.6,0.2h1.7l0.6-1.6h1.4
			L184.3,294.3z"/>
		<path d="M187.5,292.4h-0.4c-0.1,0.3-0.1,0.4,0,0.6c0.1,0.1,0.3,0.2,0.6,0.2h3.1l-0.4,1.1h-3.7c-0.3,0-0.6,0-0.8-0.1
			c-0.2-0.1-0.3-0.1-0.4-0.3c-0.1-0.1-0.1-0.3-0.1-0.4c0-0.2,0.1-0.4,0.2-0.6l0.8-2c0.1-0.2,0.2-0.4,0.3-0.6
			c0.1-0.2,0.3-0.3,0.5-0.4c0.2-0.1,0.4-0.2,0.6-0.3c0.2-0.1,0.5-0.1,0.8-0.1h3.7l-0.4,1.1h-3.1c-0.3,0-0.6,0.1-0.8,0.2
			c-0.2,0.1-0.3,0.3-0.4,0.5h4l-0.4,1.1H187.5z"/>
		<path d="M193.5,291.6l-1.1,2.7H191l1.9-4.7h1.4l1.5,2.6l1.1-2.6h1.4l-1.9,4.7H195L193.5,291.6z"/>
		<path d="M199.6,292.4h-0.4c-0.1,0.3-0.1,0.4,0,0.6c0.1,0.1,0.3,0.2,0.6,0.2h3.1l-0.4,1.1h-3.7c-0.3,0-0.6,0-0.8-0.1
			c-0.2-0.1-0.3-0.1-0.4-0.3c-0.1-0.1-0.1-0.3-0.1-0.4c0-0.2,0.1-0.4,0.2-0.6l0.8-2c0.1-0.2,0.2-0.4,0.3-0.6
			c0.1-0.2,0.3-0.3,0.5-0.4c0.2-0.1,0.4-0.2,0.6-0.3c0.2-0.1,0.5-0.1,0.8-0.1h3.7l-0.4,1.1h-3.1c-0.3,0-0.6,0.1-0.8,0.2
			c-0.2,0.1-0.3,0.3-0.4,0.5h4l-0.4,1.1H199.6z"/>
		<path d="M208.6,294.3H207l-0.9-1.6h-0.9l-0.7,1.6h-1.4l1.9-4.7h3.8c0.6,0,1,0.1,1.2,0.4c0.1,0.2,0.1,0.6-0.1,1l-0.2,0.4
			c-0.2,0.4-0.4,0.8-0.8,1c-0.3,0.2-0.7,0.4-1.1,0.4h-0.2L208.6,294.3z M207.3,291.6c0.4,0,0.6-0.1,0.8-0.2c0.2-0.1,0.3-0.2,0.3-0.3
			c0-0.1,0-0.2,0-0.3c-0.1-0.1-0.3-0.2-0.7-0.2H206l-0.4,0.9H207.3z"/>
		<path d="M213.5,292.4h-2.2l-0.7,1.8h-1.4l1.4-3.4c0.1-0.2,0.2-0.4,0.3-0.6c0.1-0.2,0.3-0.3,0.5-0.4c0.2-0.1,0.4-0.2,0.6-0.3
			c0.2-0.1,0.5-0.1,0.8-0.1h2.1c0.3,0,0.6,0,0.8,0.1c0.2,0.1,0.3,0.1,0.4,0.3c0.1,0.1,0.1,0.3,0.1,0.4c0,0.2-0.1,0.4-0.2,0.6
			l-1.4,3.4h-1.4l0.7-1.8H213.5z M213.6,291.4h0.7c0-0.1,0.1-0.2,0.1-0.3c0-0.1,0-0.2,0-0.2c0-0.1-0.1-0.1-0.2-0.1
			c-0.1,0-0.2,0-0.4,0H213c-0.3,0-0.6,0.1-0.8,0.2c-0.2,0.1-0.3,0.3-0.4,0.5H213.6z"/>
		<path d="M221.2,292.9c-0.2,0.4-0.4,0.8-0.8,1c-0.3,0.2-0.8,0.4-1.4,0.4h-2.1c-0.3,0-0.6,0-0.8-0.1c-0.2-0.1-0.3-0.1-0.4-0.3
			c-0.1-0.1-0.1-0.3-0.1-0.4c0-0.2,0.1-0.4,0.2-0.6l0.8-2c0.1-0.2,0.2-0.4,0.3-0.6c0.1-0.2,0.3-0.3,0.5-0.4c0.2-0.1,0.4-0.2,0.6-0.3
			c0.2-0.1,0.5-0.1,0.8-0.1h2.1c0.6,0,1,0.1,1.2,0.4c0.1,0.2,0.1,0.6-0.1,1l-0.2,0.5h-1.4c0.1-0.3,0.1-0.5,0.1-0.6
			c-0.1-0.1-0.3-0.2-0.7-0.2H219c-0.3,0-0.6,0.1-0.8,0.2c-0.2,0.1-0.3,0.3-0.4,0.6l-0.4,1.1c-0.1,0.2-0.1,0.4-0.1,0.6
			c0.1,0.1,0.3,0.2,0.6,0.2h0.8c0.4,0,0.6-0.1,0.8-0.2c0.2-0.1,0.3-0.3,0.4-0.6h1.4L221.2,292.9z"/>
		<path d="M222.7,294.3h-1.4l1.9-4.7h1.4L222.7,294.3z"/>
		<path d="M229.3,292.9c-0.2,0.4-0.4,0.8-0.8,1c-0.3,0.2-0.8,0.4-1.4,0.4H225c-0.6,0-0.9-0.1-1.1-0.3c-0.2-0.2-0.2-0.6,0-1l0.8-2
			c0.2-0.5,0.5-0.8,0.8-1c0.4-0.2,0.8-0.3,1.4-0.3h2.1c0.6,0,1,0.1,1.2,0.4c0.1,0.2,0.1,0.6-0.1,1L229.3,292.9z M228.1,292.5
			l0.4-1.1c0.1-0.3,0.1-0.5,0.1-0.6c-0.1-0.1-0.3-0.2-0.7-0.2h-0.8c-0.3,0-0.6,0.1-0.8,0.2c-0.2,0.1-0.3,0.3-0.4,0.6l-0.4,1.1
			c-0.1,0.2-0.1,0.4-0.1,0.6c0.1,0.1,0.3,0.2,0.6,0.2h0.8c0.4,0,0.6-0.1,0.8-0.2C227.9,292.9,228,292.7,228.1,292.5z M230.1,287.8
			l-1.8,1.2h-0.9l1.3-1.2H230.1z"/>
		<path d="M231.9,291.6l-1.1,2.7h-1.4l1.9-4.7h1.4l1.5,2.6l1.1-2.6h1.4l-1.9,4.7h-1.4L231.9,291.6z"/>
	</g>
</g>
<g>
	<path class="st23" d="M372.8,260.3c-56.8,0-102.8,9.1-102.8,20.2c0,11.2,46,20.2,102.8,20.2s102.8-9,102.8-20.2
		C475.6,269.4,429.6,260.3,372.8,260.3z M372.5,296.5c-47.3,0-85.6-7.3-85.6-16.4c0-9.1,38.3-16.4,85.6-16.4
		c47.3,0,85.6,7.3,85.6,16.4C458.1,289.1,419.8,296.5,372.5,296.5z"/>
	<polygon class="st24" points="421.6,269.2 413.5,269.2 410.1,291.7 418.3,291.7 421.6,269.2 	"/>
	<path class="st24" d="M436.8,276.3l3.1-5.7c0,0-2.6-2.8-10.2-1.5c0,0-7.7,1.8-7.8,8.3c0,0-1,4.5,4.8,5.5c0,0,0.8,0.2,1.8,0.4
		c0,0,2.8,0.2,1.4,1.9c0,0-2,2.8-7.3-1.3l-3.5,6.2c0,0,5.2,3.3,12.2,1.5c0,0,5.8-0.8,7.4-7.3c0,0,1.1-4-2.7-5.9c0,0-2.2-1.1-4.8-1.5
		c0,0-2.3-1,0.3-2.3C431.6,274.7,435.1,274.2,436.8,276.3L436.8,276.3z"/>
	<path class="st24" d="M411.5,269.1h-8.9l-3,5h-0.5l-1.5-4.9h-9l5.4,10.5l-9.3,11.4l-6-11.6l8.4-10.3h-8.8l-3.2,4.9h-0.4l-1.5-4.9
		h-8.9l5.4,10.4l-9.2,11.5l-4.4-22h-9.2l-10.7,21.1l-0.3-21.2h-8.2l-5.4,12l-1.5-12h-8.3l-7.3,22.5h7.6L316,279l1.9,12.5h4.8l6-12.5
		l-0.5,12.5h15.6l1.3-2.6h6.4l0.5,2.7h16.9l4-6.1h0.5l2.2,6.2h17.6l4.2-6.1h0.5l2.1,6.2h9.1l-6.1-12.1L411.5,269.1z M347.3,283.3
		l2.7-6.9h0.3l0.4,6.9H347.3z"/>
</g>
<g>
	<path d="M198.8,331.4c-0.1,0.2-2.1,6.9-2.1,6.9h-6.5l2.1-6.9h-7.5c0,0-5.6,18.5-5.8,18.8c0.4,0,7.3,0,7.5,0
		c0.1-0.2,2.4-7.9,2.4-7.9h6.5c0,0-2.3,7.5-2.4,7.9c0.4,0,7.3,0,7.5,0c0.1-0.2,5.6-18.5,5.8-18.8C205.9,331.4,199,331.4,198.8,331.4
		z"/>
	<path d="M238.1,333.4l-0.3,0.3l0.7-2.3H231c0,0-5.6,18.5-5.8,18.8c0.4,0,7.3,0,7.5,0c0.1-0.2,3.5-11.4,3.5-11.4
		c0.5-1.6,1.7-2.6,3.1-2.6h1.9c0.6,0,1.1,0.2,1.4,0.6c0.2,0.3,0.3,0.7,0.3,1.1c0,0.3-0.1,0.7-0.2,1c0,0-3,9.8-3.5,11.3
		c0.4,0,7.3,0,7.5,0c0.1-0.2,4.1-13.3,4.1-13.3c0.1-0.4,0.3-1.1,0.3-1.8c0-0.8-0.2-1.7-0.7-2.4c-0.8-1.1-2.3-1.7-4.4-1.7
		C241.9,331,239.3,332.5,238.1,333.4z"/>
	<path d="M208.5,332.7c0.1,0.2,1.1,3.7,1.2,4c0.7-0.3,3.5-1.4,5.9-1.4c2.3,0,3.6,0.3,4.1,1c0.3,0.3,0.3,0.8,0.1,1.3l-0.5,1.5l-0.1,0
		c-3.1-1-5.5-1-5.6-1c-2.5,0-4.7,0.6-6.5,1.8c-1.7,1.1-2.9,2.7-3.5,4.6c-0.5,1.7-0.4,3.1,0.4,4.2c0.9,1.2,2.6,1.8,5.1,1.8
		c2.3,0,4.8-0.6,7-1.7l0.3-0.1c0,0-0.4,1.1-0.4,1.4c0.4,0,7.3,0,7.5,0c0.1-0.2,4-13,4-13c0.2-0.5,0.2-1.1,0.2-1.5
		c0-0.8-0.2-1.6-0.7-2.2c-1.2-1.6-4-2.5-8-2.5C214,331,209.3,332.4,208.5,332.7z M214.4,342c0.6,0,2.5,0,3.7,0.6l0.1,0.1l-0.8,2.7
		l-0.1,0c-1.2,0.6-2.9,0.9-4.2,0.9c-1.3,0-2.1-0.3-2.5-0.8c-0.2-0.2-0.3-0.5-0.3-0.8c0-0.2,0-0.4,0.1-0.6
		C210.9,342.8,212.4,342,214.4,342z"/>
	<path d="M267.2,331.3c-0.1,0.1-7.2,5.6-7.2,5.6l1.7-5.6h-7.5c0,0-5.7,18.7-5.8,19.1c0.4,0,7.3,0,7.5,0c0.1-0.2,2.4-7.8,2.4-7.8
		s5.4,7.6,5.4,7.8c0.1,0,7.5,0,8,0c-0.3-0.4-6.9-9.8-6.9-9.8s10.7-8.8,11.3-9.3C275.5,331.3,267.3,331.3,267.2,331.3z"/>
	<path d="M270.3,340.8L270.3,340.8c-0.8,2.7-0.5,5.1,0.9,7c1.6,2.1,4.3,3.3,7.8,3.3c8.3,0,12.9-3.2,15.1-10.3c0.8-2.7,0.5-5.1-0.9-7
		c-1.6-2.1-4.3-3.3-7.8-3.3C277.8,330.5,272.3,334.2,270.3,340.8z M277.6,345c-0.7-0.9-0.7-2.3-0.1-4.3l0,0c0.7-2.4,2.4-5.3,6.3-5.3
		c1.5,0,2.5,0.4,3,1.1c0.7,0.9,0.7,2.3,0.1,4.3c-0.7,2.4-2.4,5.3-6.3,5.3C279.2,346.1,278.2,345.7,277.6,345z"/>
	<path d="M295.2,340.8L295.2,340.8c-0.8,2.7-0.5,5.1,0.9,7c1.6,2.1,4.3,3.3,7.9,3.3c8.3,0,12.9-3.2,15.1-10.3c0.8-2.7,0.5-5.1-0.9-7
		c-1.5-2.1-4.3-3.3-7.9-3.3C302.8,330.5,297.3,334.2,295.2,340.8z M308.7,335.4c1.5,0,2.5,0.4,3,1.1c0.6,0.9,0.7,2.3,0.1,4.3
		c-0.7,2.4-2.4,5.3-6.3,5.3c-1.5,0-2.5-0.4-3-1.1c-0.7-0.9-0.7-2.3-0.1-4.3l0,0C303.2,338.3,304.9,335.4,308.7,335.4z"/>
	<path d="M335.9,331.1c-0.1,0.1-7.3,6.1-7.3,6.1l1.9-6.1h-7.5c0,0-5.8,19-5.9,19.4c0.4,0,7.3,0,7.5,0c0.1-0.2,2.4-7.9,2.4-7.9
		s5.8,7.8,5.9,7.9c0.1,0,7.7,0,8.2,0c-0.3-0.4-7.3-9.9-7.3-9.9s10.1-9.1,10.7-9.5C343.7,331.1,336,331.1,335.9,331.1z"/>
	<path class="st25" d="M181.3,328.1l-0.1-0.9h-6.3c0.7,7.5-4.4,15.8-11.8,17.8l0,0c0,0,0,0,0,0c0,0-0.1,0-0.1-0.1c0,0,0-0.1,0-0.1
		l0,0c6.1-4.1,9.4-10.7,8.8-17.6h-6.2c0.3,6.1-3.8,11.6-10.1,13.9c0,0-0.1,0-0.1-0.1c0,0,0-0.1,0-0.1l0,0c4.5-3.1,7.2-7.7,7.1-13.7
		h-6.2c-0.1,7.2-6.5,12.2-19.2,12.2c0.2,0.1,0.4,0.2,0.5,0.3c8.2,4.5,12.5,7.3,18.6,12.2c0.9,0.8,2.2,1.2,3.5,1.2
		C176.1,352,182,337.6,181.3,328.1z"/>
	<g>
		<g>
			<path d="M220.2,357.9c-0.2,0.5-0.4,0.9-0.8,1.3c-0.4,0.3-0.9,0.6-1.4,0.7c-0.5,0.2-1.1,0.2-1.8,0.2h-2l-0.7,2.4h-1.8l2.1-6.8h4
				c0.6,0,1.1,0.1,1.5,0.2c0.4,0.2,0.7,0.4,0.9,0.7C220.3,357.1,220.3,357.5,220.2,357.9z M218.3,358c0.1-0.3,0-0.5-0.2-0.7
				c-0.2-0.1-0.5-0.2-0.9-0.2h-2.1l-0.5,1.7h2.2c0.4,0,0.8-0.1,1-0.2C218,358.5,218.2,358.3,218.3,358z"/>
			<polygon points="226.3,362.6 219.7,362.6 221.8,355.8 228.2,355.8 227.8,357.1 223.2,357.1 222.8,358.3 225.5,358.3 225.1,359.6 
				222.4,359.6 221.9,361.2 226.7,361.2 			"/>
			<path d="M235,362.6h-2.1l-0.9-2.4h-1.9l-0.8,2.4h-1.8l2.1-6.8h4.3c0.6,0,1.1,0.1,1.5,0.2c0.4,0.2,0.7,0.4,0.9,0.7
				c0.2,0.3,0.2,0.7,0.1,1.2c-0.3,1-1.1,1.7-2.4,2L235,362.6z M234.5,358c0.1-0.3,0-0.5-0.1-0.7c-0.2-0.1-0.5-0.2-0.9-0.2H231
				l-0.5,1.7h2.4C233.8,358.9,234.3,358.6,234.5,358z"/>
			<polygon points="244.3,357.1 239.5,357.1 239.1,358.4 241.9,358.4 241.5,359.7 238.7,359.7 237.8,362.6 236,362.6 238.1,355.8 
				244.7,355.8 			"/>
			<path d="M251.4,359.2c-0.2,0.7-0.6,1.3-1,1.8c-0.5,0.5-1.1,0.9-1.8,1.2c-0.7,0.3-1.5,0.4-2.3,0.4c-0.8,0-1.5-0.2-2-0.4
				c-0.5-0.3-0.8-0.7-1-1.2c-0.2-0.5-0.1-1.1,0.1-1.8c0.2-0.7,0.6-1.3,1-1.8c0.5-0.5,1.1-0.9,1.7-1.2c0.7-0.3,1.5-0.4,2.3-0.4
				c0.8,0,1.5,0.2,2,0.4c0.5,0.3,0.8,0.7,1,1.2C251.6,357.9,251.6,358.5,251.4,359.2z M249.5,359.2c0.1-0.4,0.2-0.8,0.1-1.1
				c0-0.3-0.2-0.6-0.5-0.8c-0.3-0.2-0.6-0.3-1.1-0.3c-0.5,0-0.9,0.1-1.3,0.3c-0.4,0.2-0.7,0.4-0.9,0.8c-0.2,0.3-0.4,0.7-0.5,1.1
				c-0.1,0.4-0.2,0.8-0.1,1.1c0,0.3,0.2,0.6,0.5,0.8c0.3,0.2,0.6,0.3,1.1,0.3c0.5,0,0.9-0.1,1.3-0.3c0.4-0.2,0.7-0.4,0.9-0.8
				C249.2,360,249.4,359.6,249.5,359.2z"/>
			<path d="M258.7,362.6h-2.1l-0.9-2.4h-1.9l-0.8,2.4h-1.8l2.1-6.8h4.3c0.6,0,1.1,0.1,1.5,0.2c0.4,0.2,0.7,0.4,0.9,0.7
				c0.2,0.3,0.2,0.7,0.1,1.2c-0.3,1-1.1,1.7-2.4,2L258.7,362.6z M258.2,358c0.1-0.3,0-0.5-0.1-0.7c-0.2-0.1-0.5-0.2-0.9-0.2h-2.4
				l-0.5,1.7h2.4C257.5,358.9,258,358.6,258.2,358z"/>
			<path d="M268.3,362.6h-1.9l0.8-2.5c0-0.1,0.1-0.3,0.2-0.5c0.1-0.2,0.1-0.4,0.2-0.6c0.1-0.2,0.1-0.3,0.1-0.4
				c-0.1,0.1-0.3,0.3-0.4,0.5c-0.2,0.2-0.4,0.4-0.6,0.6l-2.8,3l-1-3c-0.1-0.2-0.1-0.4-0.2-0.6c-0.1-0.2-0.1-0.4-0.1-0.5
				c0,0.1-0.1,0.2-0.1,0.4c-0.1,0.2-0.1,0.4-0.2,0.6c-0.1,0.2-0.1,0.4-0.1,0.5l-0.8,2.5h-1.8l2.1-6.8h1.8l1,3.1
				c0.1,0.2,0.1,0.4,0.2,0.6c0.1,0.2,0.1,0.4,0.1,0.5c0.1-0.1,0.2-0.3,0.4-0.5c0.2-0.2,0.4-0.4,0.5-0.6l2.8-3.1h1.8L268.3,362.6z"/>
			<path d="M277.7,362.6h-2l-0.3-1.5H272l-1.2,1.5h-2l5.6-6.8h1.8L277.7,362.6z M275.1,359.8l-0.2-1.2c0-0.2-0.1-0.4-0.1-0.6
				c0-0.2,0-0.3,0-0.5c-0.1,0.1-0.2,0.3-0.3,0.5c-0.1,0.2-0.3,0.4-0.4,0.6l-1,1.2H275.1z"/>
			<path d="M285.9,362.6h-1.6l-2.3-3.7c-0.1-0.1-0.2-0.3-0.2-0.4c-0.1-0.1-0.1-0.3-0.2-0.4c0,0.1-0.1,0.2-0.1,0.4
				c-0.1,0.2-0.1,0.4-0.2,0.6c-0.1,0.2-0.1,0.4-0.1,0.5l-0.9,3h-1.8l2.1-6.8h1.8l2.2,3.6c0.1,0.1,0.2,0.3,0.2,0.4
				c0.1,0.1,0.1,0.3,0.2,0.4c0-0.1,0.1-0.2,0.1-0.4c0-0.2,0.1-0.4,0.2-0.6c0.1-0.2,0.1-0.4,0.1-0.5l0.9-2.9h1.8L285.9,362.6z"/>
			<path d="M295.8,357.2l-1.9,0.6c-0.1-0.2-0.3-0.4-0.5-0.5c-0.2-0.1-0.6-0.2-1-0.2c-0.7,0-1.3,0.2-1.8,0.6c-0.5,0.4-0.8,0.9-1,1.5
				c-0.1,0.4-0.2,0.8-0.1,1.1c0.1,0.3,0.2,0.6,0.5,0.8c0.3,0.2,0.6,0.3,1.1,0.3c0.4,0,0.8-0.1,1.1-0.2c0.3-0.1,0.7-0.4,1-0.7
				l1.4,0.7c-0.5,0.5-1,0.9-1.7,1.1c-0.6,0.3-1.4,0.4-2.2,0.4c-0.8,0-1.5-0.1-2-0.4c-0.5-0.3-0.9-0.7-1-1.2
				c-0.2-0.5-0.2-1.1,0.1-1.9c0.2-0.7,0.6-1.3,1.1-1.8c0.5-0.5,1.1-0.9,1.8-1.2c0.7-0.3,1.5-0.4,2.3-0.4c0.9,0,1.5,0.1,2,0.4
				C295.3,356.4,295.6,356.7,295.8,357.2z"/>
			<polygon points="301.6,362.6 295,362.6 297.1,355.8 303.5,355.8 303.1,357.1 298.5,357.1 298.1,358.3 300.8,358.3 300.4,359.6 
				297.7,359.6 297.2,361.2 302,361.2 			"/>
			<polygon points="313.8,357.1 311.2,357.1 309.5,362.6 307.6,362.6 309.3,357.1 306.7,357.1 307.1,355.8 314.2,355.8 			"/>
			<polygon points="315.2,362.6 313.3,362.6 315.4,355.8 317.3,355.8 			"/>
			<path d="M324.3,362.6h-2.1l-0.9-2.4h-1.9l-0.8,2.4h-1.8l2.1-6.8h4.3c0.6,0,1.1,0.1,1.5,0.2c0.4,0.2,0.7,0.4,0.9,0.7
				c0.2,0.3,0.2,0.7,0.1,1.2c-0.3,1-1.1,1.7-2.4,2L324.3,362.6z M323.8,358c0.1-0.3,0-0.5-0.2-0.7c-0.2-0.1-0.5-0.2-0.9-0.2h-2.4
				l-0.5,1.7h2.4C323.1,358.9,323.6,358.6,323.8,358z"/>
			<polygon points="331.9,362.6 325.3,362.6 327.4,355.8 333.8,355.8 333.4,357.1 328.8,357.1 328.5,358.3 331.1,358.3 330.7,359.6 
				328.1,359.6 327.6,361.2 332.4,361.2 			"/>
			<path d="M340.1,360.5c-0.2,0.7-0.6,1.2-1.3,1.6c-0.7,0.4-1.7,0.6-2.9,0.6c-0.8,0-1.4-0.1-2-0.3c-0.6-0.2-1-0.5-1.2-0.9l1.6-0.9
				c0.2,0.3,0.5,0.5,0.9,0.6c0.4,0.1,0.8,0.2,1.2,0.2c0.5,0,1-0.1,1.3-0.2c0.3-0.1,0.5-0.3,0.6-0.6c0-0.1,0-0.3,0-0.4
				c-0.1-0.1-0.2-0.2-0.5-0.3c-0.3-0.1-0.7-0.2-1.2-0.3c-0.5-0.1-1-0.2-1.4-0.4c-0.4-0.1-0.7-0.3-0.8-0.6c-0.2-0.3-0.2-0.6,0-1.1
				c0.1-0.4,0.4-0.8,0.8-1.1c0.4-0.3,0.9-0.5,1.4-0.7c0.5-0.2,1.1-0.2,1.7-0.2c0.7,0,1.3,0.1,1.8,0.3c0.5,0.2,0.9,0.4,1.2,0.8
				l-1.6,0.9c-0.2-0.2-0.5-0.4-0.8-0.5c-0.3-0.1-0.7-0.2-1.1-0.2c-0.5,0-0.9,0.1-1.1,0.2c-0.2,0.1-0.4,0.3-0.4,0.4
				c0,0.1,0,0.3,0.1,0.3c0.1,0.1,0.2,0.2,0.5,0.2c0.2,0.1,0.6,0.1,1.1,0.2c0.4,0.1,0.7,0.1,1,0.2c0.3,0.1,0.6,0.2,0.9,0.4
				c0.3,0.2,0.4,0.3,0.5,0.6C340.2,359.8,340.2,360.2,340.1,360.5z"/>
		</g>
	</g>
</g>
</svg>
